<?xml version="1.0" standalone="no"?>
<!DOCTYPE svg PUBLIC "-//W3C//DTD SVG 20010904//EN"
 "http://www.w3.org/TR/2001/REC-SVG-20010904/DTD/svg10.dtd">
<svg version="1.0" xmlns="http://www.w3.org/2000/svg"
 width="626.000000pt" height="626.000000pt" viewBox="0 0 626.000000 626.000000"
 preserveAspectRatio="xMidYMid meet">

<g transform="translate(0.000000,626.000000) scale(0.100000,-0.100000)"
fill="#000000" stroke="none">
<path d="M3145 5593 c-160 -36 -288 -129 -370 -268 -21 -36 -41 -65 -46 -65
-4 0 -41 5 -82 10 -189 27 -379 -62 -470 -219 -25 -42 -45 -62 -82 -82 -72
-38 -129 -106 -156 -187 -96 -289 108 -626 393 -649 40 -3 80 -9 89 -14 14 -7
17 -33 21 -161 4 -132 2 -158 -14 -193 -12 -28 -18 -65 -18 -127 0 -112 24
-179 91 -252 l49 -54 0 -104 0 -105 -38 -15 c-35 -14 -42 -23 -70 -89 -17 -41
-46 -108 -66 -151 -34 -75 -35 -76 -93 -97 -143 -53 -243 -93 -247 -99 -2 -4
35 -41 83 -82 369 -316 564 -483 620 -534 47 -42 67 -54 69 -43 2 8 -13 113
-34 232 -20 119 -34 218 -32 221 12 11 215 34 308 34 195 0 594 -22 606 -34 6
-6 29 -101 53 -211 23 -109 43 -201 46 -203 8 -9 166 102 208 147 56 60 62 89
42 188 -10 48 -15 110 -13 162 l3 85 -140 42 c-77 24 -142 43 -143 43 -2 1 10
19 27 40 17 22 44 66 59 98 23 50 27 72 29 156 l1 98 53 27 c104 52 151 156
127 276 l-12 61 -9 -44 c-5 -25 -16 -55 -24 -67 -19 -30 -75 -49 -101 -35 -43
23 -45 35 -26 131 16 85 16 96 0 191 l-16 100 32 72 c31 70 32 76 36 245 l4
172 57 0 c143 1 267 56 370 166 135 144 188 329 151 524 -24 126 -108 239
-223 301 -58 32 -68 34 -160 34 l-97 1 -38 36 c-52 51 -135 88 -197 88 -47 0
-54 3 -95 46 -114 116 -231 165 -394 163 -55 -1 -110 -3 -121 -6z m246 -129
c69 -20 136 -63 189 -120 43 -46 90 -134 90 -168 0 -36 14 -6 20 42 l5 47 43
3 c32 2 54 -3 85 -22 89 -52 127 -117 127 -217 l0 -62 21 19 c28 26 49 67 57
117 6 34 12 42 37 49 69 19 183 -39 245 -124 53 -73 74 -191 50 -279 -14 -49
-115 -158 -179 -192 -28 -16 -51 -25 -51 -20 0 4 8 13 18 20 20 12 87 108 99
140 3 10 -21 -9 -54 -42 -48 -48 -163 -128 -163 -113 0 2 21 27 48 54 26 28
57 71 70 95 l23 44 -28 -31 c-45 -49 -142 -134 -154 -134 -6 0 5 19 24 43 40
49 72 109 82 154 6 32 5 32 -54 -27 -54 -54 -144 -110 -179 -110 -7 0 3 15 22
33 34 32 86 126 86 156 0 8 -13 -4 -28 -25 -38 -52 -102 -108 -151 -133 -37
-19 -121 -43 -121 -35 0 2 21 15 48 28 72 37 154 130 176 202 5 16 -5 10 -37
-20 -38 -36 -157 -112 -157 -100 0 2 14 23 31 47 27 37 59 99 59 115 0 3 -23
-20 -51 -51 -44 -50 -127 -117 -143 -117 -3 0 9 21 28 48 36 50 70 122 61 130
-3 3 -5 0 -5 -6 0 -17 -100 -121 -132 -138 l-29 -15 34 48 c33 46 72 132 64
139 -2 2 -26 -24 -54 -59 -27 -34 -69 -72 -91 -85 -47 -26 -55 -17 -16 19 29
27 49 61 70 121 l13 39 -52 -57 c-51 -57 -121 -114 -139 -114 -5 0 9 21 30 48
22 26 48 63 57 82 l18 35 -41 -37 c-36 -33 -110 -78 -127 -78 -4 0 12 21 34
46 23 26 41 51 41 55 0 5 -21 -5 -47 -21 l-47 -30 -43 24 c-45 26 -57 21 -23
-9 53 -48 -6 -42 -78 7 l-45 31 42 -62 c23 -33 47 -61 53 -61 6 0 9 -3 5 -6
-12 -12 -51 10 -117 67 -66 57 -69 58 -58 28 6 -18 33 -60 59 -95 43 -57 45
-63 21 -50 -54 28 -112 77 -152 127 -22 28 -40 46 -40 41 0 -30 42 -136 69
-177 18 -26 30 -49 28 -52 -5 -5 -53 33 -116 91 l-44 41 26 -49 c15 -27 27
-53 27 -58 0 -5 -30 14 -66 43 l-66 53 17 -35 c10 -19 28 -49 42 -66 38 -52 3
-42 -69 20 -88 74 -96 77 -64 23 15 -26 25 -50 22 -53 -9 -10 -75 38 -117 85
-52 59 -89 135 -89 187 0 34 -2 37 -14 25 -22 -25 -36 -79 -36 -145 0 -73 12
-114 51 -173 16 -24 29 -45 29 -48 0 -9 -86 39 -112 64 -51 47 -29 4 30 -59
31 -34 73 -69 92 -77 19 -8 29 -17 23 -19 -24 -8 -114 29 -181 74 -37 25 -71
47 -75 50 -14 9 13 -38 46 -80 31 -40 119 -97 150 -97 9 0 17 -5 17 -10 0 -29
-163 23 -241 77 l-52 35 21 -29 c12 -17 49 -56 84 -88 44 -41 55 -55 37 -50
-43 13 -114 53 -162 89 -68 52 -58 27 22 -54 68 -70 67 -75 -4 -45 -43 18
-147 109 -168 148 -14 25 -17 45 -13 90 7 75 38 133 94 182 l23 19 24 -29 24
-30 1 38 c0 56 43 138 99 190 152 142 357 151 501 21 30 -28 37 -31 33 -15 -9
33 16 150 43 204 30 57 101 138 151 168 91 56 253 75 364 43z m143 -848 c101
-26 216 -74 248 -103 16 -14 18 -38 18 -225 0 -114 -3 -208 -6 -208 -3 0 -18
9 -33 20 -38 26 -181 67 -288 81 -122 16 -383 6 -493 -20 -144 -33 -243 -70
-346 -131 -54 -32 -102 -56 -106 -53 -10 5 -11 312 -2 377 7 52 24 63 24 15 0
-26 3 -29 20 -24 24 7 26 -7 5 -25 -8 -7 -15 -16 -15 -21 0 -5 7 -9 15 -9 19
0 19 -11 0 -36 -19 -25 -19 -38 0 -30 9 3 15 0 15 -8 0 -7 -7 -19 -15 -26 -8
-7 -15 -16 -15 -21 0 -5 7 -6 15 -3 19 8 19 -7 0 -32 -16 -22 -20 -38 -6 -29
18 10 22 -15 7 -37 -9 -12 -16 -26 -16 -30 0 -4 46 16 103 46 56 29 139 68
184 86 46 19 81 35 80 36 -5 5 -152 -35 -191 -51 -21 -9 -40 -14 -43 -11 -4 4
50 36 172 101 28 14 42 24 32 21 -10 -3 -45 -13 -79 -22 -34 -8 -74 -22 -90
-30 -15 -8 -33 -14 -40 -14 -23 1 23 30 126 81 55 27 95 49 90 49 -6 0 -57
-16 -114 -35 -149 -50 -145 -40 20 50 96 52 71 54 -59 4 -41 -16 -77 -27 -79
-24 -6 6 72 53 152 92 83 40 49 37 -76 -7 -43 -15 -78 -24 -78 -19 0 14 244
129 310 145 40 10 131 18 238 21 242 8 348 -10 496 -84 37 -19 70 -32 73 -29
3 3 2 17 -1 31 -9 34 -61 58 -211 96 -154 38 -290 51 -411 39 -130 -14 -270
-43 -378 -80 -101 -34 -126 -32 -45 4 105 46 281 94 409 110 90 11 286 -3 384
-28z m-16 -525 c168 -33 252 -77 252 -131 0 -15 -13 -18 -77 -22 -43 -3 -86
-9 -95 -13 -13 -5 -18 -2 -18 11 -1 18 -2 18 -16 -1 -20 -26 -16 -52 34 -213
22 -73 38 -140 35 -148 -7 -18 -25 -22 -154 -28 -91 -5 -108 -3 -113 10 -3 9
-3 21 1 26 4 7 1 8 -7 3 -8 -5 -10 -20 -7 -41 5 -32 3 -36 -36 -56 -23 -11
-67 -40 -97 -63 -65 -50 -88 -59 -123 -46 -61 23 -82 109 -45 182 28 54 14 56
-39 6 -41 -38 -66 -32 -121 27 -59 64 -76 142 -50 229 12 39 72 110 111 132
11 6 23 32 30 65 12 53 14 55 57 67 125 36 304 38 478 4z m-867 -328 c52 -31
68 -83 76 -239 5 -121 4 -141 -10 -152 -42 -35 -146 39 -194 136 -23 48 -28
70 -28 135 0 76 1 80 33 108 38 34 79 38 123 12z m1053 -33 c39 -14 59 -64 59
-145 0 -38 -5 -82 -11 -97 l-11 -28 -36 21 c-26 16 -34 26 -29 38 16 38 15 64
-5 130 -12 38 -21 74 -21 80 0 14 21 14 54 1z m-214 -285 c15 -19 18 -16 -50
-51 -74 -39 -77 -40 -61 -21 8 10 -21 1 -72 -23 -141 -66 -139 -49 7 54 65 47
85 56 121 56 26 0 47 -6 55 -15z m236 -57 c17 -18 43 -50 59 -70 36 -49 11
-52 -39 -4 -20 18 -38 31 -41 28 -3 -3 -26 14 -51 39 -40 39 -43 45 -28 56 21
16 56 -1 100 -49z m-846 -20 c-6 -24 -10 -90 -8 -146 2 -56 0 -102 -4 -102
-16 0 -30 89 -25 156 5 66 31 153 43 142 3 -3 0 -26 -6 -50z m90 20 c0 -91 63
-182 148 -215 53 -20 153 -22 216 -5 51 15 57 8 14 -15 -26 -14 -54 -18 -130
-18 l-97 1 -6 -46 c-3 -25 -8 -56 -11 -70 -5 -24 -6 -24 -29 14 -13 22 -32 68
-41 104 l-18 65 -12 -34 c-15 -42 -18 -148 -4 -183 16 -44 -5 -29 -32 22 -71
131 -82 271 -32 378 20 43 34 44 34 2z m555 12 c-8 -13 -105 -63 -111 -57 -6
6 88 67 104 67 7 0 10 -5 7 -10z m136 -52 c39 -48 26 -48 -30 1 -26 23 -41 43
-36 50 9 15 24 3 66 -51z m-82 -97 c12 -16 49 -48 82 -70 38 -25 54 -41 42
-41 -20 0 -61 24 -80 48 -7 8 -38 19 -69 23 -31 4 -58 10 -61 13 -6 5 47 55
59 56 4 0 16 -13 27 -29z m-169 -190 c0 -93 8 -100 41 -31 15 33 32 60 37 60
5 0 21 -26 35 -57 l26 -58 0 58 c1 31 5 57 10 57 13 0 57 -58 70 -90 8 -20 10
-12 10 43 1 37 5 67 10 67 5 0 20 -17 32 -37 30 -48 32 -150 4 -203 -25 -49
-77 -120 -87 -120 -4 0 -8 30 -8 68 l-1 67 -27 -65 c-35 -80 -53 -110 -69
-110 -19 0 -64 61 -101 138 -19 39 -36 72 -39 72 -2 0 -1 -38 3 -85 4 -47 4
-85 2 -85 -11 0 -91 114 -110 157 -24 54 -20 121 9 175 l17 33 14 -78 14 -78
23 50 c26 55 64 111 77 111 4 0 8 -27 8 -59z m-226 -164 c8 -42 -12 -23 -24
25 -7 23 -8 57 -4 82 l8 41 7 -60 c5 -33 11 -73 13 -88z m572 55 c-3 -24 -10
-51 -16 -60 -11 -20 -14 50 -3 112 6 37 7 38 15 15 5 -13 7 -43 4 -67z m-1139
17 c73 -55 175 -108 313 -164 63 -26 119 -51 123 -55 10 -9 -29 -159 -45 -175
-9 -9 -5 43 8 117 4 19 1 28 -13 32 -132 38 -211 64 -278 92 l-80 34 35 -30
c19 -16 70 -48 112 -70 84 -44 107 -65 61 -54 -26 6 -170 52 -218 70 -27 10
42 -46 108 -87 65 -41 61 -38 56 -44 -6 -6 -110 27 -174 54 l-50 22 25 -26
c14 -15 62 -50 108 -78 45 -27 81 -52 79 -54 -6 -5 -98 25 -176 56 -39 17 -69
27 -67 22 3 -4 39 -34 81 -67 41 -32 71 -60 65 -62 -30 -10 -268 136 -284 174
-7 17 131 334 147 334 5 0 34 -18 64 -41z m1032 -355 c-28 -78 -42 -91 -33
-34 7 48 21 81 38 92 18 12 17 2 -5 -58z"/>
<path d="M3610 4456 c47 -18 99 -40 117 -49 39 -21 44 -21 37 -3 -5 13 -106
56 -179 75 -71 19 -62 11 25 -23z"/>
<path d="M3590 4402 c30 -10 83 -33 118 -50 61 -32 80 -31 43 2 -26 24 -106
53 -166 60 l-50 6 55 -18z"/>
<path d="M3580 4336 c36 -13 92 -35 124 -50 33 -14 62 -24 65 -20 13 12 -44
45 -120 69 -104 33 -159 34 -69 1z"/>
<path d="M3600 4267 c36 -13 89 -36 118 -51 53 -27 68 -23 33 8 -26 23 -106
53 -166 61 l-50 6 65 -24z"/>
<path d="M3644 4185 c66 -25 121 -43 124 -40 8 8 -64 46 -127 65 -120 38 -118
20 3 -25z"/>
<path d="M3112 3999 c-36 -18 -82 -64 -82 -83 0 -3 12 -1 26 4 14 6 42 10 62
10 l36 0 -31 -32 c-37 -40 -53 -69 -53 -98 0 -17 4 -21 18 -15 9 4 41 12 70
18 53 11 84 7 159 -24 31 -13 33 -12 75 35 56 63 74 93 83 135 7 33 7 33 -15
18 -20 -14 -26 -14 -68 4 -58 25 -156 49 -202 49 -19 0 -54 -10 -78 -21z"/>
<path d="M2564 3722 c-11 -7 -34 -46 -34 -57 0 -3 8 -1 19 4 14 8 23 6 37 -10
17 -19 17 -20 -4 -35 -48 -33 -10 -144 49 -144 5 0 8 10 7 23 -1 12 8 36 21
54 19 26 22 38 16 74 -11 67 -72 117 -111 91z"/>
<path d="M4297 4013 c-16 -15 -6 -101 18 -150 l24 -53 -30 0 c-41 0 -79 -39
-79 -82 1 -102 98 -149 334 -162 82 -5 96 -3 87 8 -6 8 -77 54 -158 102 -127
77 -152 89 -190 88 -23 0 -43 1 -43 2 0 2 13 10 30 19 21 11 43 13 72 9 l43
-7 -21 24 c-38 42 -45 64 -29 87 10 13 22 18 34 15 19 -5 115 -100 199 -197
23 -27 42 -47 42 -44 0 3 -22 51 -50 107 -55 113 -119 191 -156 191 -35 0 -68
-19 -86 -48 l-16 -27 -7 28 c-4 16 -5 44 -2 63 5 32 -1 43 -16 27z"/>
<path d="M1945 3877 c-14 -24 -25 -58 -25 -75 0 -31 28 -102 40 -102 13 0 59
56 65 81 7 27 -30 139 -45 139 -5 0 -21 -20 -35 -43z"/>
<path d="M2157 3867 c-33 -57 -172 -188 -239 -226 -29 -17 -77 -38 -105 -46
-61 -18 -86 -47 -86 -103 0 -113 110 -166 223 -108 66 33 105 93 105 161 0 46
-4 58 -30 85 l-30 32 67 61 c71 67 138 150 138 173 0 26 -18 14 -43 -29z
m-363 -332 c3 -9 -1 -18 -10 -22 -19 -7 -39 11 -30 26 10 16 33 13 40 -4z"/>
<path d="M1765 3711 c-16 -10 -43 -33 -60 -51 l-30 -33 81 6 c78 5 164 34 164
56 0 14 -65 41 -97 41 -15 0 -41 -8 -58 -19z"/>
<path d="M2063 3691 c-13 -11 -23 -24 -23 -30 0 -22 46 -41 102 -41 68 0 75
14 29 61 -34 34 -75 38 -108 10z"/>
<path d="M5045 3520 c-163 -24 -387 -122 -538 -236 -128 -97 -273 -267 -339
-399 -66 -129 -97 -306 -78 -438 24 -168 24 -179 -3 -234 -53 -104 -121 -152
-777 -554 -737 -451 -835 -510 -1078 -644 -218 -120 -237 -133 -272 -182 -72
-101 -79 -230 -19 -343 75 -142 229 -187 381 -112 35 17 131 87 217 157 84 70
291 238 460 373 277 223 618 498 1026 827 183 148 257 201 301 215 27 9 52 7
128 -9 223 -49 407 -9 584 126 253 194 461 583 501 937 25 215 -52 392 -206
474 -87 46 -175 59 -288 42z m80 -110 c8 -12 -32 -37 -75 -45 -110 -21 -289
-97 -391 -166 -76 -51 -204 -172 -264 -249 -123 -160 -173 -330 -144 -492 l13
-73 7 90 c11 164 68 273 223 433 54 56 101 100 104 98 2 -3 -31 -44 -73 -93
-144 -164 -196 -262 -201 -376 -3 -71 -3 -71 6 -20 23 124 73 209 217 368 105
116 131 141 138 133 3 -2 -28 -42 -67 -89 -104 -123 -157 -196 -189 -264 -42
-88 -35 -101 10 -20 53 94 144 194 406 447 306 296 331 318 365 318 16 0 31
-4 34 -9 5 -7 -80 -99 -416 -447 -51 -54 -78 -89 -78 -104 0 -25 26 -60 44
-60 5 0 133 123 284 273 l273 272 19 -25 c11 -14 20 -28 20 -32 0 -4 -101
-114 -224 -245 -283 -302 -280 -297 -272 -328 8 -32 40 -49 66 -35 10 5 119
115 240 243 122 127 225 233 230 235 12 5 22 -35 15 -59 -6 -19 -90 -122 -297
-364 -159 -187 -171 -209 -52 -95 60 58 112 109 116 115 4 5 9 7 12 4 14 -13
-218 -287 -297 -352 -23 -19 -77 -57 -121 -86 -85 -55 -89 -59 -30 -35 81 33
175 108 298 235 70 72 129 129 132 126 8 -8 -201 -250 -259 -300 -104 -89
-203 -138 -315 -157 l-47 -8 51 -1 c139 -3 321 106 453 271 56 71 68 58 13
-15 -97 -128 -238 -241 -360 -288 -42 -16 -80 -22 -149 -23 -113 -1 -97 -18
24 -24 64 -3 97 0 151 17 242 73 485 379 585 738 33 118 57 173 76 173 23 0
-42 -251 -98 -381 -132 -305 -359 -536 -586 -594 -79 -20 -151 -19 -259 5 -50
11 -104 20 -122 20 -73 0 -177 -59 -329 -186 -44 -37 -95 -78 -113 -92 l-33
-25 -29 28 c-17 16 -30 34 -30 41 0 7 53 49 119 94 141 95 190 146 237 243 38
80 41 118 19 212 -31 129 -14 291 44 420 79 174 262 367 448 472 114 65 255
118 351 132 31 5 60 9 64 10 4 0 9 -3 13 -9z m-1313 -1627 c21 -20 38 -40 38
-45 0 -6 -1266 -1025 -1499 -1207 -97 -75 -157 -89 -231 -51 -77 39 -116 127
-97 219 13 64 70 113 232 201 201 108 1303 776 1452 879 32 22 60 40 63 40 2
1 21 -16 42 -36z"/>
<path d="M4246 2155 c-9 -26 -7 -32 5 -12 6 10 9 21 6 23 -2 3 -7 -2 -11 -11z"/>
<path d="M3955 1874 c-33 -25 -62 -50 -64 -56 -4 -12 114 76 124 92 10 16 3
12 -60 -36z"/>
<path d="M3763 1729 c-32 -20 -43 -39 -23 -39 5 0 24 13 42 30 38 34 28 39
-19 9z"/>
<path d="M3210 1372 c-261 -175 -599 -397 -750 -493 -243 -154 -276 -178 -285
-206 -10 -37 -21 -42 -30 -14 -7 24 -32 18 -40 -9 -8 -25 18 -84 46 -104 32
-22 106 -21 145 3 17 11 168 129 335 263 347 279 598 476 849 667 96 74 189
147 207 164 31 29 35 47 10 47 -7 0 -226 -143 -487 -318z"/>
<path d="M3375 1521 c-12 -11 -263 -166 -774 -478 -468 -286 -459 -280 -477
-316 -9 -16 -14 -30 -12 -32 2 -2 46 25 98 60 52 35 214 139 360 231 309 195
820 531 820 539 0 7 -5 6 -15 -4z"/>
<path d="M950 3387 c-18 -119 -8 -392 19 -518 93 -435 359 -852 810 -1273 145
-135 360 -316 376 -316 6 0 24 14 41 31 35 38 210 189 244 212 13 9 44 17 67
17 37 0 51 -7 105 -52 35 -29 71 -59 81 -67 15 -12 29 -7 122 50 57 35 101 67
99 71 -11 17 -42 6 -74 -27 -19 -19 -39 -35 -45 -35 -6 0 -29 18 -50 41 -54
55 -178 137 -220 145 -82 15 -159 -24 -309 -159 l-65 -59 -163 145 c-452 401
-708 733 -832 1076 -28 78 -69 231 -63 237 2 2 27 -56 57 -128 127 -311 261
-514 529 -805 120 -131 274 -276 403 -381 l68 -54 82 78 c96 89 160 124 233
124 l50 0 -175 167 c-204 195 -444 440 -590 603 -125 139 -354 419 -348 425 2
3 124 -100 270 -229 316 -278 921 -798 1027 -883 3 -2 -7 -16 -21 -31 -36 -38
-48 -65 -48 -105 0 -40 10 -52 101 -130 63 -54 67 -56 82 -39 16 17 13 21 -37
63 -29 24 -61 55 -71 68 -18 24 -18 25 6 70 29 55 85 97 106 79 12 -9 10 -15
-12 -32 l-27 -21 51 -43 c28 -24 51 -51 51 -62 0 -16 61 -80 77 -80 11 0 123
72 123 79 0 5 -73 71 -162 147 -347 296 -1289 1111 -1606 1388 -183 160 -336
292 -341 294 -5 2 -14 -35 -21 -81z"/>
<path d="M2790 2401 c0 -10 13 -113 30 -227 28 -198 31 -210 57 -231 15 -12
28 -21 29 -20 1 1 -19 113 -44 250 -32 170 -50 247 -59 247 -7 0 -13 -8 -13
-19z"/>
<path d="M2891 2394 c0 -11 3 -14 6 -6 3 7 2 16 -1 19 -3 4 -6 -2 -5 -13z"/>
<path d="M2901 2355 c0 -11 14 -125 32 -252 29 -206 36 -235 57 -258 13 -14
25 -24 27 -22 5 6 -27 177 -68 357 -43 190 -47 205 -48 175z"/>
<path d="M3016 2334 c-42 -42 -19 -115 39 -122 60 -7 99 74 55 118 -24 24 -72
26 -94 4z"/>
<path d="M3466 2334 c-32 -32 -28 -92 8 -116 21 -14 66 -8 86 12 43 43 11 120
-49 120 -16 0 -37 -7 -45 -16z"/>
<path d="M3077 1952 c-19 -21 -22 -64 -7 -92 19 -35 88 -33 112 4 14 21 8 73
-10 89 -25 22 -75 21 -95 -1z"/>
<path d="M3508 1958 c-19 -15 -34 -63 -21 -71 12 -7 114 56 110 68 -5 15 -70
18 -89 3z"/>
<path d="M4300 1825 c-25 -13 -70 -45 -100 -71 -30 -26 -144 -119 -252 -206
-109 -88 -198 -161 -198 -164 0 -2 19 -17 42 -34 40 -29 44 -30 152 -30 l111
1 -57 30 c-32 16 -58 34 -58 39 0 6 49 10 123 11 l122 0 -75 37 -75 36 130 7
c72 4 132 7 135 8 3 0 -24 19 -60 41 -36 22 -58 41 -50 41 8 1 77 4 154 8
l138 6 -68 45 -69 45 140 5 140 5 -57 30 c-32 16 -58 32 -58 35 0 3 55 14 123
25 l122 19 -65 8 c-36 5 -121 17 -190 28 -152 24 -145 24 -200 -5z"/>
<path d="M2412 1377 l-84 -72 104 -3 c92 -3 108 -1 146 20 23 12 42 26 42 29
0 9 -106 99 -117 99 -4 0 -45 -33 -91 -73z"/>
<path d="M3649 1307 c-72 -56 -81 -67 -68 -83 15 -18 388 -298 514 -386 45
-31 112 -75 150 -97 39 -22 62 -41 52 -41 -13 0 -16 -6 -12 -22 3 -14 -3 -36
-15 -55 -16 -27 -26 -33 -54 -33 -64 0 -99 79 -55 126 l20 22 -243 173 c-134
95 -280 202 -326 237 -62 48 -86 62 -95 53 -8 -8 -7 -14 5 -23 9 -7 120 -93
247 -192 127 -98 231 -180 231 -183 0 -10 -50 27 -270 195 -174 134 -239 178
-250 171 -8 -4 -32 -23 -54 -42 l-39 -33 184 -150 c472 -386 526 -426 605
-451 49 -15 56 -15 99 1 59 23 97 72 102 134 7 77 -14 99 -169 175 -126 62
-273 159 -432 286 -37 29 -65 56 -62 58 3 3 69 -38 146 -92 182 -124 315 -198
412 -231 100 -33 138 -59 166 -114 39 -79 20 -164 -51 -227 -73 -64 -168 -68
-254 -10 -44 30 -546 432 -691 554 -35 29 -66 53 -70 53 -4 0 -31 -22 -61 -48
l-54 -48 225 -188 c509 -423 666 -514 835 -478 202 42 311 275 216 461 -37 73
-90 112 -207 151 -105 35 -273 132 -503 290 -76 52 -142 96 -148 97 -5 2 -17
-3 -26 -10z"/>
</g>
</svg>
