<?xml version="1.0" standalone="no"?>
<!DOCTYPE svg PUBLIC "-//W3C//DTD SVG 20010904//EN"
 "http://www.w3.org/TR/2001/REC-SVG-20010904/DTD/svg10.dtd">
<svg version="1.0" xmlns="http://www.w3.org/2000/svg"
 width="2500.000000pt" height="2500.000000pt" viewBox="0 0 2500.000000 2500.000000"
 preserveAspectRatio="xMidYMid meet">

<g transform="translate(0.000000,2500.000000) scale(0.100000,-0.100000)"
fill="#000000" stroke="none">
<path d="M13095 22785 c-122 -15 -194 -27 -340 -57 -55 -11 -118 -24 -140 -28
-40 -8 -81 -22 -240 -82 -158 -59 -440 -225 -605 -356 -52 -42 -154 -134 -227
-205 l-132 -130 -58 21 c-65 24 -206 63 -298 82 -33 7 -76 17 -95 22 -163 42
-665 42 -850 -1 -300 -69 -436 -114 -636 -210 -244 -118 -431 -249 -594 -417
-169 -175 -294 -341 -386 -513 -64 -121 -81 -133 -219 -172 -139 -39 -300
-116 -426 -204 -108 -76 -295 -265 -382 -386 -141 -197 -265 -503 -298 -734
-17 -118 -22 -412 -9 -500 47 -319 140 -522 371 -807 12 -14 19 -32 17 -40 -3
-7 -59 -46 -124 -87 -179 -112 -376 -244 -499 -336 -60 -45 -135 -99 -165
-120 -30 -21 -93 -70 -139 -109 -46 -39 -112 -93 -146 -121 -82 -66 -187 -161
-419 -380 -238 -225 -296 -284 -511 -520 -522 -574 -830 -1003 -1211 -1686
-102 -184 -146 -271 -286 -574 -109 -235 -211 -494 -302 -769 -66 -198 -96
-295 -156 -506 -23 -79 -72 -278 -94 -380 -32 -147 -36 -166 -57 -265 -11 -55
-25 -131 -29 -170 -14 -111 -29 -218 -35 -247 -26 -120 -65 -584 -81 -963 -8
-196 11 -699 32 -849 8 -55 14 -126 14 -158 0 -62 6 -106 46 -363 120 -765
328 -1466 644 -2175 87 -195 277 -556 448 -851 60 -104 285 -444 317 -479 12
-14 35 -45 51 -70 79 -123 340 -458 493 -630 478 -538 834 -859 1456 -1312
394 -288 819 -530 1420 -811 332 -155 476 -211 885 -346 223 -73 285 -91 600
-176 290 -78 576 -134 895 -175 88 -11 194 -24 235 -30 41 -5 134 -14 205 -20
72 -6 182 -15 245 -21 182 -16 805 -30 1040 -24 366 10 1025 71 1240 115 25 5
131 26 235 46 105 20 219 45 255 56 36 11 112 33 170 49 175 49 212 60 300 91
136 49 124 51 209 -47 67 -78 166 -168 276 -252 38 -29 168 -110 268 -167 159
-91 383 -127 562 -92 126 25 213 64 385 171 30 19 61 33 69 30 40 -15 272 -45
348 -45 144 0 246 32 419 131 41 23 44 23 125 10 46 -8 134 -16 196 -18 100
-4 121 -2 200 22 168 52 290 133 396 266 60 75 177 277 177 306 0 23 19 22
130 -7 153 -40 361 -58 473 -41 272 41 458 131 582 278 110 133 158 275 154
457 -3 87 -1 100 16 112 10 8 27 14 37 14 36 0 216 66 348 127 225 104 422
253 614 463 222 242 374 623 415 1040 22 223 -51 364 -262 504 -215 143 -645
294 -1057 372 -47 8 -98 20 -115 24 -29 9 -211 43 -325 61 -55 9 -333 34 -545
49 -60 5 -276 13 -480 20 -203 6 -386 14 -405 18 l-35 8 -7 84 c-10 131 -28
286 -43 380 -8 47 -21 135 -30 195 -9 61 -20 135 -25 165 -6 30 -14 93 -20
140 -5 47 -14 103 -19 125 -5 22 -15 74 -21 115 -20 131 -89 445 -132 602 -17
62 -19 80 -9 92 19 22 179 130 239 160 80 41 204 69 302 69 51 0 142 -10 225
-26 226 -42 275 -47 453 -47 406 0 707 93 1107 343 179 111 266 179 385 299
261 264 402 521 456 828 22 127 15 371 -15 480 -38 145 -98 275 -176 386 -56
79 -194 208 -286 269 -83 55 -259 140 -322 156 -162 41 -213 49 -362 54 -258
10 -408 -12 -640 -94 -231 -81 -554 -275 -756 -452 -84 -74 -240 -251 -307
-347 -52 -75 -172 -285 -172 -300 0 -5 -9 -27 -20 -50 -12 -24 -25 -61 -29
-85 -5 -23 -16 -69 -26 -102 -22 -77 -33 -164 -45 -345 -17 -271 -35 -360 -96
-482 -50 -99 -116 -158 -360 -321 -121 -80 -272 -182 -337 -227 -65 -44 -121
-80 -124 -80 -3 0 -55 -35 -117 -78 -61 -43 -199 -136 -306 -206 -107 -71
-206 -136 -220 -145 -14 -10 -92 -64 -175 -120 -214 -145 -461 -318 -531 -372
-33 -26 -143 -103 -244 -172 -102 -68 -234 -159 -295 -201 -60 -41 -118 -76
-127 -76 -9 0 -31 21 -49 48 -18 26 -96 110 -173 187 -104 104 -163 154 -227
193 -240 145 -369 164 -774 112 -49 -6 -139 -18 -200 -25 -263 -34 -629 -89
-695 -105 -243 -59 -371 -140 -536 -339 -38 -46 -105 -125 -149 -175 -44 -50
-123 -143 -176 -206 -53 -63 -138 -164 -188 -225 -51 -60 -129 -155 -174 -209
-248 -299 -491 -555 -609 -639 -98 -69 -233 -143 -374 -202 -70 -30 -130 -55
-134 -55 -9 0 -37 185 -59 390 -5 47 -17 139 -26 205 -9 66 -20 154 -25 195
-5 41 -16 129 -25 195 -9 66 -20 154 -25 195 -15 120 -59 459 -69 535 -24 174
-30 226 -41 315 -13 114 -22 178 -55 415 -30 207 -51 356 -66 470 -6 44 -17
123 -24 175 -8 52 -19 133 -25 180 -7 47 -18 123 -25 170 -29 180 -38 297 -25
336 17 49 73 110 129 139 41 20 380 132 546 180 33 10 107 32 165 50 58 18
159 49 225 70 276 85 797 257 1090 360 422 148 1120 434 1335 547 365 192 459
253 633 413 193 176 269 270 371 457 40 75 50 86 64 78 9 -6 35 -22 57 -35
114 -70 371 -204 709 -370 207 -102 379 -185 382 -185 8 0 123 -55 429 -206
417 -204 610 -340 834 -588 193 -212 341 -532 396 -851 9 -55 23 -132 31 -172
8 -39 11 -85 8 -102 -9 -46 13 -40 67 16 63 67 76 90 110 203 41 139 49 303
21 410 -42 156 -158 398 -256 530 -134 181 -225 281 -341 375 -49 40 -118 95
-151 123 -34 28 -72 56 -85 62 -13 7 -60 37 -104 66 -82 54 -639 332 -890 444
-306 136 -1035 505 -1153 583 -73 49 -79 63 -92 212 -27 310 -87 501 -200 627
-27 31 -50 63 -50 71 0 10 17 16 55 21 77 9 324 92 400 133 96 54 221 158 271
226 75 102 95 148 169 397 58 196 132 421 192 585 151 415 312 938 334 1080 4
28 16 100 27 160 29 162 42 272 42 356 0 117 -18 325 -41 471 -21 133 -32 227
-45 369 -8 95 16 178 93 317 133 238 143 334 62 617 -15 55 -42 139 -59 188
-48 141 -48 150 -1 276 39 104 41 116 41 218 0 104 -18 275 -39 378 -16 83
-39 212 -61 355 -11 74 -27 175 -35 224 -8 49 -15 113 -15 141 0 57 -11 45
185 202 261 208 466 517 526 792 63 287 65 432 11 681 -15 71 -32 123 -80 247
-68 176 -249 409 -427 548 -46 36 -87 65 -90 65 -4 0 -28 15 -54 34 -82 59
-184 112 -300 157 -108 41 -116 46 -170 108 -127 145 -252 259 -383 347 -182
123 -518 261 -693 284 -33 4 -121 17 -195 29 -152 23 -264 25 -425 6z m540
-351 c66 -14 158 -39 205 -55 272 -95 545 -278 685 -460 27 -34 58 -61 82 -71
21 -9 72 -30 113 -46 91 -37 141 -64 290 -159 210 -134 354 -269 453 -425 57
-90 87 -154 119 -257 26 -85 30 -115 35 -262 4 -129 2 -183 -11 -245 -40 -201
-114 -312 -295 -442 -71 -51 -92 -42 -41 18 36 43 81 124 111 205 19 52 23 84
27 249 3 155 2 188 -10 184 -7 -3 -14 -18 -16 -34 -10 -83 -116 -259 -213
-350 -55 -52 -185 -144 -193 -137 -3 3 10 27 28 52 53 72 65 112 67 214 2 128
0 152 -9 142 -4 -6 -14 -32 -20 -59 -13 -52 -53 -115 -99 -157 -39 -36 -165
-120 -171 -115 -2 3 9 27 26 53 79 124 102 381 49 563 -27 95 -100 254 -138
300 -17 20 -20 21 -14 5 36 -102 47 -185 42 -315 -5 -142 -26 -228 -82 -340
-51 -102 -151 -202 -261 -264 -16 -9 -44 -25 -62 -36 l-33 -20 12 23 c7 12 22
38 35 57 33 51 81 340 57 340 -5 0 -18 -19 -30 -43 -38 -77 -140 -196 -205
-237 -62 -39 -275 -127 -284 -117 -3 3 10 29 29 58 43 68 114 242 138 337 50
197 40 430 -26 657 -26 89 -106 254 -160 330 -53 73 -68 80 -34 13 48 -93 70
-210 75 -398 5 -152 3 -188 -16 -275 -12 -55 -23 -113 -26 -130 -6 -31 -59
-161 -94 -230 -42 -83 -146 -190 -257 -264 -128 -86 -162 -95 -105 -29 16 18
34 56 41 83 14 56 21 251 11 305 l-6 35 -13 -45 c-20 -70 -44 -109 -113 -184
-87 -96 -162 -148 -274 -192 -101 -39 -122 -37 -105 7 48 129 -4 389 -117 573
-38 63 -50 63 -33 -1 16 -55 13 -145 -5 -221 -27 -109 -100 -262 -126 -262 -6
0 -34 17 -62 38 -28 21 -91 67 -141 102 -49 35 -118 90 -153 124 -76 73 -184
216 -212 279 -40 90 -50 70 -25 -53 9 -41 19 -100 24 -130 21 -126 109 -320
184 -405 20 -24 37 -45 37 -48 0 -16 -107 5 -177 36 -148 63 -278 170 -390
319 -112 150 -150 229 -184 387 -10 45 -20 86 -23 89 -12 12 -5 -209 9 -309
19 -124 27 -157 66 -269 68 -194 205 -348 385 -432 36 -17 63 -35 61 -42 -7
-22 -174 -26 -282 -6 -154 28 -175 34 -256 72 -154 72 -302 189 -402 318 -26
34 -37 29 -18 -8 5 -9 22 -53 37 -97 58 -175 130 -276 264 -370 80 -56 91 -69
68 -77 -26 -9 -245 11 -288 26 -25 9 -53 16 -62 16 -27 0 -161 64 -240 115
-96 62 -245 213 -283 287 -17 32 -33 58 -37 58 -13 0 -9 -61 8 -119 45 -155
58 -187 97 -252 45 -77 130 -163 198 -200 23 -13 41 -28 40 -34 -2 -13 -116
-7 -203 10 -214 44 -429 227 -545 465 -42 87 -57 139 -69 245 -11 100 -26 32
-31 -146 -6 -160 6 -256 43 -366 24 -70 123 -211 180 -257 35 -28 43 -46 21
-46 -15 0 -122 54 -187 94 -62 39 -175 150 -216 213 -71 110 -133 261 -160
386 -21 104 -18 323 6 421 11 43 20 86 20 95 0 53 -113 -211 -135 -317 -40
-187 -28 -337 42 -557 54 -169 232 -406 338 -451 46 -19 44 -34 -4 -34 -61 0
-167 48 -277 126 -78 55 -128 111 -188 214 -81 136 -111 252 -111 423 0 59 -2
107 -5 107 -4 0 -14 -15 -23 -32 -9 -18 -21 -40 -27 -48 -18 -28 -78 -165 -93
-215 -49 -157 -41 -326 21 -460 42 -91 135 -214 187 -247 19 -13 35 -26 35
-30 0 -16 -53 -7 -77 12 -14 11 -31 20 -38 20 -33 0 -158 48 -218 84 -128 76
-264 243 -292 359 -15 58 -25 35 -25 -57 0 -106 10 -160 47 -254 53 -133 181
-271 311 -336 55 -28 67 -46 30 -46 -26 0 -93 16 -123 30 -11 5 -45 19 -75 31
-154 64 -305 189 -350 293 -12 25 -25 48 -29 51 -5 3 -17 -19 -26 -47 -10 -29
-32 -87 -50 -128 -50 -114 -70 -196 -70 -283 0 -47 -4 -76 -10 -74 -16 6 -73
128 -85 186 -12 54 -9 238 5 294 13 48 -18 32 -48 -25 -15 -29 -40 -73 -55
-98 -66 -107 -87 -198 -79 -341 4 -57 9 -121 13 -141 9 -56 -7 -46 -44 26 -42
82 -72 202 -72 285 0 112 40 273 104 423 17 40 21 78 8 78 -9 0 -58 -58 -107
-126 -16 -23 -42 -57 -56 -75 -38 -48 -106 -184 -125 -249 -27 -91 -29 -261
-5 -377 25 -120 47 -173 117 -279 85 -129 208 -233 338 -285 22 -9 42 -21 44
-28 6 -18 -46 -13 -128 13 -124 39 -210 86 -360 199 -41 32 -85 57 -97 57 -12
0 -25 5 -28 10 -3 6 -14 10 -24 10 -18 0 -92 67 -139 126 l-23 29 4 -35 c5
-36 138 -287 185 -350 14 -19 51 -61 81 -93 30 -31 52 -59 49 -62 -8 -9 -119
53 -183 102 -94 72 -143 122 -195 198 -60 89 -81 131 -114 230 -49 144 -60
225 -59 415 1 155 4 188 28 285 47 194 94 305 203 490 104 176 240 312 421
425 89 55 211 113 220 104 3 -3 6 -85 6 -182 0 -170 1 -180 29 -257 16 -44 46
-111 68 -150 45 -81 144 -183 160 -167 8 8 7 20 -2 41 -8 21 -12 95 -13 233 0
195 1 208 32 333 64 264 135 427 282 650 132 200 300 365 506 499 227 147 478
238 818 298 98 17 547 17 645 0 179 -32 370 -85 550 -152 47 -17 92 -34 100
-36 10 -4 38 25 85 87 102 135 319 346 446 435 320 220 708 361 1064 384 193
13 392 3 530 -26z m575 -2508 c274 -25 409 -45 505 -74 l60 -18 17 -65 c9 -35
21 -93 27 -129 16 -98 59 -348 87 -500 52 -283 52 -286 95 -579 5 -35 11 -66
13 -70 3 -4 1 -13 -3 -20 -6 -9 -19 -10 -52 -2 -55 12 -174 26 -409 48 -268
25 -892 25 -1165 0 -262 -24 -575 -63 -710 -87 -33 -6 -90 -15 -126 -20 -36
-5 -99 -16 -140 -26 -41 -9 -94 -19 -119 -23 -25 -4 -88 -17 -140 -29 -52 -12
-149 -33 -215 -48 -66 -14 -156 -35 -200 -46 -44 -11 -98 -23 -120 -28 -22 -4
-67 -16 -100 -25 -33 -10 -71 -20 -85 -23 -21 -4 -119 -29 -285 -72 -57 -14
-170 -51 -187 -61 -10 -5 -23 -9 -30 -9 -15 0 -162 -47 -251 -80 -66 -25 -85
-19 -44 14 41 33 251 141 364 188 228 93 425 171 523 204 58 20 119 42 135 50
17 7 91 31 165 54 74 23 143 46 152 51 10 5 28 9 41 9 13 0 32 7 43 16 18 14
15 15 -36 9 -48 -5 -219 -37 -350 -64 -25 -6 -103 -22 -175 -36 -71 -14 -152
-32 -180 -40 -27 -7 -75 -19 -105 -25 -30 -7 -89 -23 -130 -36 -41 -13 -82
-24 -90 -24 -8 0 -37 -9 -65 -20 -27 -11 -81 -31 -120 -45 -38 -15 -91 -36
-117 -47 -27 -12 -51 -18 -55 -14 -15 14 43 49 222 136 204 98 295 136 515
214 85 30 209 75 275 99 66 25 147 52 180 61 33 10 94 29 135 44 65 23 71 27
45 30 -16 2 -52 -1 -80 -7 -88 -19 -269 -53 -305 -58 -220 -28 -739 -169 -899
-244 -84 -39 -111 -47 -111 -31 0 18 41 44 205 125 250 125 720 302 1058 398
64 18 117 37 117 42 0 8 -94 2 -170 -13 -42 -8 -131 -23 -295 -51 -38 -6 -83
-15 -99 -20 -16 -5 -41 -9 -55 -9 -31 0 -145 -29 -261 -65 -47 -15 -94 -29
-105 -32 -36 -8 -189 -56 -220 -69 -16 -6 -48 -17 -70 -24 -22 -7 -49 -19 -60
-26 -24 -17 -55 -18 -55 -1 1 45 528 275 903 393 224 70 296 92 389 118 121
34 138 45 67 46 -31 0 -69 -4 -85 -10 -27 -9 -100 -22 -224 -40 -30 -4 -93
-15 -140 -25 -47 -9 -112 -20 -145 -25 -127 -18 -381 -82 -460 -116 -22 -9
-56 -21 -75 -25 -45 -10 -132 -41 -190 -68 -25 -11 -54 -21 -64 -21 -19 0 -19
0 0 21 20 22 142 83 300 149 55 23 113 48 129 55 89 40 218 90 317 124 131 45
360 120 403 131 57 15 250 70 303 86 28 9 52 18 52 21 0 11 -206 -15 -340 -42
-47 -9 -103 -20 -125 -25 -22 -4 -71 -15 -110 -25 -38 -9 -90 -21 -115 -25
-162 -31 -378 -83 -495 -120 -157 -50 -349 -119 -377 -135 -14 -8 -33 -15 -42
-15 -33 0 -14 30 42 65 109 69 528 271 702 339 96 37 186 72 199 77 107 43
531 158 761 207 358 76 537 101 965 137 207 17 833 12 1065 -9z m-3989 -643
c-5 -10 -92 -62 -194 -115 -185 -97 -332 -186 -419 -252 -25 -20 -50 -36 -54
-36 -11 0 -96 -72 -180 -152 -81 -78 -166 -220 -144 -241 9 -9 17 -6 33 14 50
60 452 328 592 394 33 16 85 41 115 56 76 38 263 109 269 103 15 -14 -29 -44
-174 -119 -88 -45 -182 -96 -210 -113 -27 -17 -70 -43 -95 -57 -25 -14 -64
-38 -87 -53 -57 -37 -268 -216 -288 -244 -70 -99 -108 -167 -113 -202 l-5 -41
52 45 c29 25 65 54 79 64 15 11 68 50 117 86 146 109 272 182 540 316 182 90
225 106 225 82 0 -13 -50 -44 -220 -136 -30 -16 -82 -47 -115 -69 -33 -22 -72
-46 -86 -54 -15 -8 -50 -27 -80 -43 -74 -40 -146 -94 -249 -189 -74 -68 -140
-145 -140 -162 0 -2 -16 -31 -36 -63 -27 -46 -35 -69 -32 -98 l3 -38 34 45
c33 43 96 98 176 151 22 15 60 43 85 63 25 19 58 42 74 51 15 9 49 31 75 49
102 72 437 239 519 258 27 6 25 -11 -3 -27 -11 -6 -38 -23 -60 -37 -42 -27
-54 -34 -250 -144 -120 -67 -213 -126 -271 -174 -18 -14 -61 -50 -97 -79 -46
-38 -88 -87 -145 -171 -44 -64 -84 -129 -87 -143 -9 -37 13 -47 39 -17 12 13
59 56 106 94 47 38 87 72 90 76 11 13 253 179 262 179 5 0 34 16 64 35 30 19
57 35 60 35 3 0 43 19 87 42 223 114 252 125 252 98 0 -8 -32 -33 -72 -55 -39
-22 -96 -56 -125 -76 -29 -19 -91 -55 -138 -79 -90 -45 -111 -59 -237 -155
-102 -78 -141 -118 -240 -246 -79 -102 -103 -143 -103 -175 0 -22 27 -16 48
11 31 39 150 128 217 163 22 11 51 32 65 47 14 15 48 42 75 59 82 53 109 70
130 82 256 143 389 204 407 186 10 -10 -53 -56 -127 -93 -135 -68 -280 -149
-327 -183 -31 -22 -80 -57 -109 -76 -121 -81 -300 -291 -316 -371 -7 -38 14
-39 48 -3 34 37 166 144 217 177 171 110 292 178 463 261 154 75 179 84 179
68 0 -16 -35 -40 -125 -85 -147 -73 -402 -230 -543 -334 -42 -31 -128 -108
-191 -171 -83 -83 -116 -110 -122 -101 -9 15 -38 138 -49 214 -4 27 -20 104
-35 170 -15 66 -38 167 -51 225 -13 58 -31 141 -39 185 -37 185 -48 237 -81
380 -19 83 -40 164 -45 180 -6 17 -13 38 -16 48 -8 25 109 135 237 225 120 85
323 212 392 247 29 15 98 51 153 80 99 52 262 121 320 136 17 4 31 7 33 8 1 1
-2 -7 -7 -16z m4135 -1068 c251 -19 419 -46 483 -80 39 -19 77 -94 119 -230
75 -245 92 -305 112 -379 30 -119 35 -112 -72 -119 -301 -19 -505 -83 -662
-209 -107 -86 -162 -168 -209 -308 -26 -77 -28 -99 -29 -225 0 -119 4 -157 26
-250 71 -295 107 -406 220 -684 14 -36 31 -91 38 -123 12 -57 12 -58 -18 -89
-16 -17 -45 -40 -64 -52 -37 -23 -39 -23 -360 -18 -132 2 -173 -3 -362 -44
-88 -19 -107 -13 -138 38 -25 40 -25 88 -1 160 26 82 9 88 -78 29 -75 -51 -94
-91 -95 -201 0 -76 3 -91 27 -128 28 -44 76 -86 118 -102 15 -5 91 -17 170
-26 79 -8 167 -20 194 -25 252 -47 315 -47 448 1 186 68 306 147 375 247 37
54 37 55 37 156 l-1 101 -82 202 c-122 302 -251 717 -236 758 7 18 95 86 104
80 4 -3 10 -25 13 -51 14 -126 156 -214 278 -171 73 25 139 96 139 148 0 26
11 49 23 49 6 0 21 -10 34 -22 20 -19 23 -31 23 -94 0 -40 7 -108 15 -151 14
-70 23 -140 55 -428 12 -105 6 -380 -10 -475 -19 -117 -60 -297 -86 -385 -13
-44 -24 -84 -24 -89 0 -12 -88 -288 -146 -461 -25 -71 -56 -166 -70 -210 -15
-44 -39 -111 -54 -150 -15 -38 -37 -99 -48 -135 -100 -320 -121 -388 -125
-405 -15 -63 -70 -233 -84 -259 -45 -87 -165 -194 -271 -239 -136 -58 -202
-70 -414 -75 -173 -3 -220 -1 -385 22 -212 30 -193 27 -331 55 -153 31 -351
88 -477 137 -33 12 -105 39 -160 59 -344 126 -791 400 -1060 650 -130 121
-166 171 -210 290 -21 55 -64 163 -97 240 -79 184 -118 307 -194 605 -14 58
-28 113 -31 123 -8 31 -22 18 -29 -29 -8 -54 -48 -105 -105 -135 -29 -14 -59
-19 -122 -19 -77 0 -90 3 -166 40 -53 26 -104 61 -143 97 -63 60 -158 194
-209 296 -16 31 -45 81 -63 110 -59 92 -192 349 -230 443 -19 50 -43 126 -51
170 -18 92 -21 316 -6 358 6 15 9 31 6 36 -6 10 34 127 72 210 30 66 125 175
188 216 45 30 135 54 201 54 282 -1 582 -255 753 -640 80 -179 243 -432 264
-411 7 7 7 19 -2 37 -15 33 -16 263 -2 327 5 23 17 87 26 142 38 231 71 324
146 417 60 73 244 241 337 306 42 30 100 74 127 97 47 39 138 103 296 205 l66
42 6 161 c5 110 11 166 20 181 18 27 201 74 517 131 242 44 277 49 545 80 315
36 860 46 1191 20z m-6481 -378 c36 -24 213 -97 297 -123 224 -67 544 -73 756
-13 25 7 47 8 52 3 5 -5 20 -65 35 -134 14 -69 32 -152 40 -185 8 -33 30 -136
50 -230 61 -287 117 -468 162 -517 16 -18 18 -40 19 -182 0 -176 12 -249 66
-409 48 -142 103 -256 262 -547 20 -36 40 -74 45 -85 5 -11 37 -78 71 -150 63
-132 144 -307 218 -470 106 -233 142 -421 142 -736 0 -194 -12 -273 -45 -292
-145 -80 -310 -259 -399 -435 -58 -114 -75 -165 -150 -457 -56 -214 -81 -280
-126 -325 -35 -35 -320 -207 -505 -306 -49 -26 -148 -80 -220 -119 -71 -40
-166 -91 -210 -115 -142 -77 -260 -142 -270 -150 -17 -14 -511 -270 -727 -377
-115 -57 -243 -123 -287 -147 -43 -24 -112 -58 -152 -77 -41 -18 -85 -40 -99
-49 -14 -9 -63 -33 -110 -55 -47 -21 -236 -113 -420 -205 -444 -220 -721 -378
-881 -502 -31 -24 -73 -56 -95 -73 -137 -104 -376 -354 -455 -475 -48 -74
-151 -255 -177 -310 -79 -171 -146 -353 -198 -535 -70 -245 -125 -462 -199
-785 -46 -199 -75 -323 -90 -385 -8 -33 -17 -81 -21 -106 -3 -25 -9 -52 -14
-59 -10 -16 -30 -4 -30 17 0 9 -24 80 -54 157 -116 302 -269 785 -321 1011 -8
39 -20 86 -25 105 -18 69 -29 127 -50 255 -12 72 -25 148 -30 170 -31 141 -80
563 -80 685 l0 75 367 0 c363 0 855 12 902 21 17 4 21 8 13 16 -11 11 -1037
31 -1179 23 -89 -5 -113 5 -113 48 0 12 -2 111 -5 219 -4 180 -3 198 13 207 9
5 363 11 792 14 753 6 1008 15 1067 38 l28 11 -25 8 c-28 9 -750 27 -1420 37
-245 3 -448 10 -451 15 -3 5 -2 30 2 56 4 26 8 83 8 127 1 94 19 257 29 267 4
3 590 9 1302 13 1224 5 1529 12 1651 35 28 6 72 10 97 10 25 0 43 2 41 4 -19
19 -688 33 -2479 52 -561 6 -630 10 -615 34 7 12 36 239 44 342 3 47 10 90 14
94 8 8 476 18 1322 28 1171 14 1367 20 1315 39 -26 9 -752 27 -1335 33 -308 3
-563 7 -566 9 -3 2 -161 5 -352 6 -353 3 -378 5 -357 39 6 8 10 36 10 61 0 25
5 60 11 78 l11 31 225 0 c124 0 289 5 367 10 190 14 871 40 1025 40 68 0 121
3 118 7 -8 8 -305 19 -846 32 -223 6 -436 13 -475 16 -39 3 -140 7 -224 9 -84
2 -155 6 -159 9 -3 4 -1 33 6 64 28 131 75 326 86 361 l13 37 464 6 c978 13
1309 20 1468 30 91 6 253 14 361 18 170 6 200 10 225 26 l29 20 -90 7 c-150
11 -1102 30 -1774 35 l-633 5 7 46 c4 26 10 52 14 57 8 10 22 50 67 195 14 47
33 101 43 121 l16 36 565 7 c311 4 642 11 735 16 94 5 468 17 832 26 365 10
660 21 655 25 -11 10 -728 29 -1122 29 -195 1 -425 5 -510 10 -85 5 -368 12
-627 16 -452 7 -473 8 -473 26 0 23 104 287 145 369 38 75 -6 69 529 70 265 0
562 4 661 9 99 5 454 14 788 20 335 5 613 13 618 16 5 3 119 6 252 6 133 0
262 3 287 7 l45 7 -65 7 c-36 4 -445 12 -910 17 -465 6 -930 15 -1035 20 -104
6 -387 10 -627 10 -248 0 -439 4 -442 9 -7 10 33 97 101 226 12 22 38 74 58
115 64 131 11 118 504 123 446 5 892 20 1146 36 83 6 297 11 478 11 332 0 428
12 210 25 -123 8 -427 12 -478 7 -16 -2 -73 1 -125 7 -163 18 -566 30 -1088
32 -276 1 -505 5 -508 10 -5 8 73 137 113 187 l18 23 480 4 c707 6 1470 23
1550 34 39 6 124 11 190 11 127 1 180 11 134 24 -62 17 -1004 46 -1563 47
-221 0 -453 4 -516 8 -63 4 -135 3 -159 -1 -24 -4 -46 -7 -47 -5 -5 4 126 192
242 348 l101 136 64 -9 c84 -10 1869 10 1932 22 26 6 166 10 310 10 293 0 670
10 662 18 -11 11 -237 24 -585 32 -201 5 -561 14 -800 20 -239 6 -675 12 -967
13 -293 1 -533 4 -533 7 0 6 56 83 136 185 48 61 145 175 199 232 l30 32 435
6 c678 9 1824 46 1837 59 14 14 -12 19 -139 27 -325 19 -654 29 -1213 36 -744
9 -744 9 -777 -1 -18 -5 -28 -4 -28 2 0 5 100 112 223 236 l222 226 515 5
c566 6 1067 20 1230 35 58 5 159 10 225 10 184 1 118 16 -130 29 -121 7 -278
17 -350 23 -141 11 -894 27 -1172 24 -95 -1 -173 2 -173 6 0 8 4 11 67 60 23
18 77 64 120 101 43 38 144 121 226 185 l147 116 264 -3 c275 -3 866 12 1166
29 96 6 221 11 277 12 125 2 151 13 51 22 -326 28 -903 49 -1271 45 l-348 -4
25 20 c79 64 429 300 541 365 50 29 101 61 114 72 28 21 49 23 76 5z m7205
-745 c-19 -50 -95 -191 -110 -206 -5 -5 -47 5 -102 24 -87 31 -101 33 -218 33
-157 0 -234 -25 -328 -105 -42 -36 -52 -35 -52 2 0 71 56 151 119 170 20 6 45
15 56 20 114 52 307 92 555 118 96 10 105 4 80 -56z m-4277 -3462 c41 -60 377
-400 452 -458 33 -25 83 -66 111 -91 67 -62 191 -164 234 -195 114 -82 280
-191 383 -251 64 -39 131 -78 148 -89 66 -41 35 -3 -73 87 -174 146 -432 425
-602 652 -156 208 -176 237 -170 246 3 5 85 -69 182 -165 248 -244 286 -277
562 -483 106 -80 345 -241 380 -256 8 -4 31 -17 50 -28 94 -57 120 -70 120
-62 0 4 -47 51 -103 103 -56 52 -132 130 -167 173 -36 43 -102 119 -147 169
-79 87 -102 122 -89 136 4 3 19 -6 34 -20 106 -99 574 -394 727 -458 17 -7 39
-17 50 -23 11 -6 38 -14 60 -18 22 -4 52 -11 68 -15 18 -4 27 -2 27 6 0 6 -60
69 -132 140 -144 139 -154 160 -63 136 142 -39 506 -106 574 -106 40 0 44 -17
43 -185 -1 -129 -7 -176 -40 -305 -21 -81 -78 -167 -196 -290 -95 -100 -166
-184 -205 -245 -37 -56 -91 -168 -91 -190 0 -7 -4 -16 -9 -19 -5 -3 -11 -16
-14 -28 -3 -13 -15 -54 -26 -93 -31 -104 -92 -371 -102 -443 -10 -77 -39 -145
-71 -166 -32 -21 -245 -96 -252 -89 -3 4 -6 54 -6 112 0 203 -44 521 -85 615
-41 95 -117 189 -200 246 -46 31 -214 108 -327 151 -143 53 -452 191 -543 242
-253 143 -467 327 -675 582 -98 121 -104 155 -10 59 30 -31 87 -82 125 -113
65 -53 271 -201 280 -201 2 0 39 -21 82 -47 89 -53 414 -213 433 -213 6 0 24
-6 38 -14 56 -29 113 -49 120 -41 4 4 -1 12 -12 19 -130 79 -627 549 -756 716
-163 211 -224 295 -277 380 -99 159 -95 163 35 28 254 -264 585 -522 877 -683
89 -50 195 -111 218 -127 50 -35 40 -12 -19 43 -116 108 -339 337 -438 449
-169 191 -296 340 -313 368 -9 15 -29 41 -44 57 -59 66 -229 337 -229 367 0
17 38 -21 73 -72z m-393 -1310 c43 -46 349 -252 475 -319 22 -11 74 -41 115
-66 81 -48 356 -186 430 -215 157 -62 421 -171 455 -189 176 -92 231 -183 255
-421 6 -58 15 -149 20 -203 6 -54 10 -160 10 -237 0 -125 -2 -140 -18 -149
-19 -10 -257 -97 -362 -132 -30 -10 -120 -41 -200 -69 -194 -69 -419 -143
-565 -186 -66 -20 -178 -55 -250 -79 -71 -24 -170 -56 -220 -70 -49 -15 -121
-37 -160 -50 -126 -40 -229 -73 -270 -84 -38 -10 -231 -67 -565 -166 -278 -83
-311 -99 -343 -161 -38 -73 -39 -103 -12 -316 14 -112 29 -230 34 -263 26
-164 62 -437 126 -930 8 -60 21 -155 30 -210 17 -115 56 -383 62 -435 2 -19
13 -100 23 -180 11 -80 29 -226 40 -325 11 -99 23 -187 25 -196 3 -9 9 -56 15
-105 5 -49 20 -174 35 -279 14 -104 30 -225 35 -269 5 -43 12 -86 14 -95 3 -9
12 -92 21 -186 8 -93 19 -188 25 -210 5 -22 10 -45 10 -52 0 -18 -28 -41 -63
-52 -18 -5 -84 -28 -147 -51 -63 -23 -144 -52 -180 -65 -36 -13 -137 -51 -225
-84 -87 -34 -165 -59 -173 -56 -11 4 -12 21 -7 78 9 108 -21 628 -43 752 -6
33 -27 152 -47 265 -20 113 -39 216 -41 229 -10 48 -24 4 -38 -119 -9 -69 -22
-179 -31 -245 -18 -134 -30 -238 -45 -400 -6 -60 -13 -117 -17 -125 -5 -14
-15 -137 -31 -387 -4 -62 -11 -116 -17 -121 -15 -14 -139 -57 -220 -77 -38
-10 -119 -31 -180 -46 -141 -38 -131 -35 -192 -44 -37 -5 -53 -3 -53 4 0 7 9
67 19 134 39 245 66 448 81 627 6 69 15 150 20 180 5 30 14 132 20 225 5 94
15 217 22 275 6 60 12 254 12 455 0 364 -7 451 -59 720 -32 167 -145 487 -187
530 -19 20 -19 20 -14 -5 13 -59 26 -242 26 -369 0 -195 -47 -730 -76 -864 -3
-15 -10 -65 -14 -110 -5 -45 -16 -118 -25 -162 -9 -44 -21 -105 -25 -135 -5
-30 -14 -82 -21 -115 -6 -33 -21 -116 -33 -185 -21 -123 -39 -159 -43 -90 -8
128 -59 364 -109 500 -60 168 -178 370 -326 559 -27 36 -62 74 -76 85 -27 20
-27 20 -10 0 57 -66 177 -385 217 -579 44 -215 61 -352 69 -570 10 -274 9
-318 -8 -323 -12 -4 -109 22 -142 39 -10 5 -24 9 -31 9 -26 0 -222 114 -312
181 -49 37 -133 112 -185 167 -138 145 -212 243 -445 592 -332 495 -541 765
-830 1068 -63 67 -89 101 -64 87 13 -8 128 -103 139 -116 3 -3 27 -22 55 -43
77 -58 405 -377 497 -483 173 -200 298 -334 496 -532 189 -189 208 -202 123
-81 -67 95 -77 112 -187 313 -56 102 -262 428 -319 507 -19 25 -79 106 -134
180 -55 74 -115 155 -133 180 -54 73 -149 193 -181 227 -63 67 -17 50 88 -33
138 -109 183 -151 331 -311 65 -71 180 -194 254 -274 74 -79 197 -215 274
-302 76 -87 140 -156 143 -153 3 3 -12 34 -34 68 -23 35 -58 95 -79 133 -152
281 -415 692 -596 930 -166 219 -215 278 -439 526 -37 41 -84 93 -103 115 -38
41 -48 66 -18 43 9 -8 55 -46 102 -85 47 -39 99 -79 115 -89 17 -10 68 -55
115 -99 47 -45 99 -93 115 -107 46 -40 304 -314 382 -406 39 -44 90 -101 114
-125 24 -24 82 -88 129 -142 47 -55 97 -113 112 -130 l27 -31 -21 45 c-12 25
-36 68 -53 95 -18 28 -63 104 -100 170 -62 108 -102 177 -130 224 -5 9 -32 52
-58 96 -150 250 -406 559 -677 817 -68 65 -121 121 -117 124 3 3 44 -21 90
-54 47 -33 99 -68 116 -76 16 -9 56 -37 88 -64 32 -26 83 -66 113 -89 47 -35
489 -481 669 -676 30 -31 56 -55 58 -53 2 2 -17 37 -43 77 -26 41 -88 142
-137 224 -104 174 -200 314 -305 440 -83 99 -325 345 -412 417 -30 25 -53 48
-50 51 8 8 238 -133 317 -194 100 -78 165 -139 401 -378 117 -119 247 -259
289 -311 42 -52 78 -97 80 -99 1 -2 5 -2 7 0 5 5 -16 46 -80 156 -29 48 -68
120 -87 159 -50 100 -204 320 -311 444 -122 141 -361 381 -466 466 -235 192
-450 326 -576 359 -32 8 -59 17 -61 19 -24 24 185 48 342 39 296 -16 570 -154
914 -462 78 -71 189 -190 237 -257 32 -43 40 -21 11 29 -14 24 -43 77 -63 118
-111 223 -303 449 -494 584 -138 97 -392 205 -483 205 -20 0 -38 4 -42 9 -11
19 65 23 197 12 246 -19 388 -72 595 -218 80 -56 322 -290 412 -398 48 -57
163 -213 195 -264 34 -53 45 -46 18 11 -11 24 -32 71 -46 106 -38 91 -130 263
-196 368 -77 124 -151 214 -251 308 -128 120 -234 185 -411 251 -80 29 -53 47
36 24 22 -6 66 -17 96 -24 30 -7 75 -19 100 -25 56 -14 207 -86 297 -141 109
-67 292 -217 411 -338 23 -24 45 -41 48 -38 3 3 -27 67 -66 143 -76 146 -154
257 -242 341 -64 62 -196 157 -255 184 -24 11 -43 26 -43 34 0 19 -3 19 120
-11 94 -23 163 -46 226 -76 52 -24 184 -134 334 -278 159 -152 180 -170 180
-153 0 10 -119 246 -146 288 -88 141 -247 305 -353 366 -54 30 -78 59 -51 59
17 0 163 -50 210 -71 89 -41 247 -165 396 -311 84 -82 155 -145 158 -140 6 10
-45 137 -63 155 -6 6 -11 16 -11 23 0 14 -79 152 -130 229 -35 52 -164 199
-215 246 -26 24 -28 28 -13 34 19 8 80 -27 181 -102 31 -24 61 -43 66 -43 5 0
49 -37 99 -82 49 -46 136 -124 193 -175 57 -50 122 -107 144 -126 22 -20 42
-31 44 -26 4 13 -63 143 -146 282 -61 102 -143 213 -221 301 -24 27 -31 41
-23 49 7 7 16 6 28 -5 10 -8 45 -30 78 -48 33 -18 67 -38 75 -45 8 -7 53 -39
100 -70 47 -32 103 -74 125 -95 56 -53 247 -205 267 -213 10 -3 20 -2 23 2 6
11 -31 103 -62 153 -13 21 -23 41 -23 45 0 3 -6 14 -14 22 -8 9 -24 34 -36 56
-25 45 -237 321 -269 349 -19 18 -29 46 -15 46 3 0 18 -9 33 -19 15 -11 54
-34 86 -52 104 -56 181 -112 416 -302 97 -79 151 -112 197 -122 28 -6 32 -4
32 15 0 35 -74 151 -209 330 -148 195 -184 241 -192 246 -17 10 -9 24 14 24
29 0 179 -95 362 -230 257 -189 272 -199 319 -215 58 -20 90 -13 80 18 -4 12
-15 33 -24 47 -10 14 -34 50 -54 80 -57 87 -95 138 -175 240 -172 218 -186
239 -175 250 8 8 93 -40 189 -107 21 -15 44 -30 50 -33 15 -6 121 -83 188
-135 210 -164 343 -244 382 -229 20 8 20 5 -17 66 -55 91 -116 177 -223 313
-27 35 -68 89 -90 120 -22 32 -59 80 -82 108 -38 45 -51 67 -39 67 7 0 71 -30
91 -43 11 -6 55 -39 98 -72 44 -33 101 -76 128 -95 26 -19 100 -75 164 -125
175 -135 174 -134 263 -176 92 -44 92 -44 92 -27 0 15 -130 205 -220 323 -38
50 -91 119 -117 153 -26 35 -68 89 -93 120 -25 32 -54 70 -64 85 -17 27 -17
28 1 19 10 -6 27 -20 38 -32 11 -12 47 -43 80 -68 33 -25 89 -69 125 -97 102
-82 564 -397 680 -464 30 -18 84 -51 120 -73 59 -37 512 -268 526 -268 3 0 61
-24 128 -54 66 -30 159 -69 206 -87 97 -36 497 -169 509 -169 4 0 11 35 15 78
3 42 11 122 16 177 22 235 7 398 -47 497 -52 97 -158 183 -435 354 -212 130
-375 244 -528 368 -125 101 -400 375 -400 398 0 9 35 -16 60 -42z m3309 -240
c-28 -129 -84 -259 -161 -380 -151 -236 -182 -333 -193 -590 -3 -91 -11 -175
-17 -188 -7 -12 -65 -54 -132 -94 -67 -39 -129 -78 -139 -86 -40 -35 -39 -12
8 258 88 500 111 554 345 801 135 142 219 251 266 345 l29 59 3 -35 c2 -19 -2
-60 -9 -90z m5733 -945 c150 -16 240 -41 363 -100 170 -81 306 -206 398 -366
58 -102 106 -288 107 -415 0 -190 -85 -479 -176 -596 -16 -20 -40 -54 -54 -73
-14 -20 -61 -77 -104 -126 -256 -287 -679 -532 -1051 -608 -84 -18 -277 -41
-335 -41 -74 0 -283 27 -400 52 -116 25 -329 34 -425 19 -84 -13 -202 -49
-265 -81 -134 -68 -476 -289 -690 -445 -53 -39 -104 -76 -115 -82 -123 -76
-196 -124 -280 -182 -109 -77 -202 -139 -395 -266 -177 -116 -197 -129 -275
-185 -168 -120 -284 -190 -313 -190 -23 0 -72 20 -72 29 1 15 28 35 250 184
129 87 276 186 325 220 50 34 187 126 305 205 118 78 276 184 350 235 75 50
171 115 215 144 301 196 544 374 618 452 131 140 164 237 187 571 13 179 32
291 77 440 105 346 377 702 688 901 103 66 130 81 237 138 178 95 327 143 513
166 135 17 169 17 317 0z m-2322 -2927 c17 -41 49 -181 75 -333 15 -82 35
-184 46 -225 10 -41 19 -107 19 -147 0 -66 -4 -79 -46 -160 -55 -108 -134
-212 -220 -292 -57 -54 -80 -91 -55 -91 20 0 165 106 201 147 32 36 87 149
126 258 5 16 9 12 21 -25 24 -78 37 -194 25 -228 -24 -69 -111 -182 -229 -297
-68 -66 -123 -126 -123 -133 0 -27 42 -11 136 53 83 56 179 164 195 218 12 41
26 63 35 54 8 -8 18 -96 34 -282 l10 -129 -57 -58 c-80 -81 -127 -79 -74 3 34
54 44 89 26 89 -8 0 -21 -7 -30 -16 -45 -46 -207 -102 -315 -111 -65 -5 -80
-3 -80 8 0 8 -1 152 -2 321 l-3 306 75 79 c105 108 134 149 176 239 20 44 47
103 61 132 23 48 43 142 30 142 -3 0 -18 -28 -34 -62 -68 -146 -276 -408 -302
-383 -7 7 -15 118 -22 290 -6 154 -13 314 -16 355 l-4 76 33 17 c18 10 47 28
64 40 123 91 186 141 191 153 8 21 22 17 33 -8z m-630 -133 c-14 -17 -30 -20
-30 -6 0 5 8 12 18 14 9 3 19 5 21 6 2 0 -2 -6 -9 -14z m60 -392 c0 -60 -4
-178 -10 -263 -5 -85 -14 -249 -20 -365 -14 -286 -32 -542 -39 -554 -3 -5 -96
-14 -206 -20 -110 -7 -238 -16 -285 -21 -47 -5 -125 -12 -175 -16 -161 -10
-490 -58 -560 -80 -41 -13 -64 -31 -126 -97 -60 -64 -91 -89 -147 -116 -40
-19 -75 -31 -79 -27 -4 4 -10 33 -14 64 -4 31 -13 81 -21 110 l-15 53 41 35
c43 37 230 163 306 206 25 14 73 47 107 72 97 71 211 237 242 353 10 36 31 54
258 226 137 103 298 225 358 272 61 47 121 93 135 103 102 69 189 134 204 151
39 43 46 29 46 -86z m-850 -181 c0 -13 -12 -22 -22 -16 -10 6 -1 24 13 24 5 0
9 -4 9 -8z m-70 -40 c0 -10 -110 -106 -114 -101 -2 2 -6 14 -10 25 -6 19 2 26
56 53 71 35 68 34 68 23z m-1874 -68 c109 -31 165 -63 240 -134 100 -96 256
-319 325 -465 199 -424 245 -586 216 -752 -10 -58 -24 -98 -48 -137 -18 -31
-37 -56 -41 -56 -4 0 -8 21 -8 46 0 61 -60 176 -150 288 -36 44 -99 128 -140
185 -41 56 -102 141 -135 186 -33 46 -106 148 -162 227 -156 219 -168 228
-258 210 -27 -6 -93 -16 -145 -22 -52 -6 -135 -19 -185 -27 -65 -12 -158 -16
-335 -17 -243 0 -246 0 -330 28 -47 16 -104 39 -127 53 -34 20 -43 22 -43 10
0 -24 117 -153 169 -186 59 -38 171 -91 192 -91 9 0 36 -7 60 -16 63 -22 326
-73 436 -84 124 -13 317 -53 374 -78 80 -35 111 -73 362 -446 143 -214 165
-278 133 -388 -9 -31 -16 -67 -16 -80 0 -62 -125 -358 -151 -358 -6 0 -9 6 -6
13 16 43 28 137 23 180 -10 74 -64 171 -148 267 -41 47 -88 101 -104 120 -65
77 -171 183 -196 196 -15 8 -56 14 -95 14 -84 0 -272 18 -338 32 -54 11 -126
24 -190 33 -129 18 -421 101 -476 134 -65 40 -65 22 -2 -68 89 -124 175 -201
288 -258 61 -31 239 -88 350 -113 55 -12 155 -35 223 -51 68 -16 131 -29 140
-29 34 0 140 -59 165 -91 14 -19 44 -70 66 -114 68 -132 55 -199 -56 -306 -71
-68 -149 -109 -268 -139 -84 -21 -174 -24 -192 -6 -4 3 32 43 79 89 51 48 89
93 93 110 4 15 6 29 4 31 -2 2 -31 0 -64 -4 -33 -4 -204 -8 -380 -9 -176 -1
-360 -6 -410 -11 -49 -5 -170 -10 -267 -10 -155 0 -178 -2 -178 -16 0 -17 109
-71 200 -99 114 -35 121 -49 73 -145 -32 -64 -315 -355 -398 -410 -200 -132
-277 -172 -450 -233 -132 -47 -386 -97 -493 -97 -53 0 -85 -13 -58 -23 39 -15
40 -117 1 -202 -65 -142 -323 -399 -525 -522 -36 -22 -114 -72 -174 -112 -61
-39 -113 -71 -117 -71 -4 0 -55 -23 -114 -50 -58 -28 -110 -48 -114 -45 -5 2
-11 19 -14 37 -3 18 -16 89 -30 158 -14 69 -31 166 -37 215 -7 50 -18 126 -26
170 -7 44 -18 123 -23 175 -6 52 -16 147 -23 210 -6 63 -12 234 -12 380 -1
313 4 340 82 412 48 43 94 69 232 130 129 56 391 188 480 242 47 28 123 79
170 114 91 69 309 278 394 378 28 33 105 121 171 196 124 139 316 366 395 468
25 31 71 88 102 126 32 38 72 87 90 109 18 22 65 81 105 130 154 191 210 247
279 283 37 20 138 51 214 67 123 27 546 89 845 126 50 6 92 13 94 15 2 2 71 4
152 4 128 0 158 -3 235 -26z m1505 -129 c85 -30 100 -65 45 -111 -74 -64 -291
-224 -406 -301 -63 -42 -196 -149 -207 -166 -4 -6 -12 7 -20 33 -6 25 -19 70
-28 100 -8 30 -15 71 -15 92 0 41 -2 39 166 158 285 201 358 232 465 195z
m-9758 -77 c212 -188 325 -299 502 -493 216 -235 409 -427 565 -559 58 -49
112 -97 120 -107 8 -9 74 -63 145 -118 72 -56 137 -107 145 -114 8 -7 71 -52
140 -101 131 -92 136 -96 238 -165 34 -24 62 -49 62 -57 0 -29 -46 -38 -128
-27 -132 19 -197 40 -325 103 -329 163 -539 377 -1027 1045 -171 234 -252 337
-415 525 -50 58 -96 113 -104 123 -28 36 3 15 82 -55z m9502 -328 c-3 -5 -11
-10 -16 -10 -6 0 -7 5 -4 10 3 6 11 10 16 10 6 0 7 -4 4 -10z m-85 -54 c0 -10
-151 -118 -157 -112 -4 3 4 14 17 24 13 9 47 34 74 54 48 34 66 44 66 34z
m-9389 -273 c26 -27 115 -120 200 -208 259 -271 529 -534 630 -616 212 -172
501 -336 719 -409 52 -17 126 -47 163 -66 38 -19 81 -34 97 -34 31 0 48 -16
33 -31 -18 -18 -196 -37 -253 -27 -208 36 -315 66 -388 109 -18 10 -37 19 -43
19 -20 0 -173 102 -267 178 -174 142 -303 288 -591 669 -117 153 -203 263
-308 389 -29 35 -53 66 -53 69 0 14 20 1 61 -42z m11938 -326 c7 -9 8 -24 1
-48 -6 -18 -10 -83 -10 -144 0 -60 -7 -148 -15 -195 -8 -47 -15 -117 -15 -157
0 -70 -12 -103 -25 -64 -3 10 -10 63 -15 117 -6 55 -14 136 -19 180 -5 45 -11
133 -12 195 l-3 114 30 6 c49 11 71 10 83 -4z m-742 -152 c1 -82 -2 -166 -8
-185 -5 -19 -12 -75 -15 -125 -8 -143 -14 -175 -30 -175 -8 0 -14 6 -15 13 0
6 -3 50 -5 97 -2 46 -8 98 -13 115 -5 16 -12 100 -15 185 -4 85 -9 169 -12
187 -6 31 -5 32 33 36 84 9 78 20 80 -148z m250 143 c8 -6 9 -19 2 -41 -5 -18
-9 -86 -9 -152 -1 -66 -5 -140 -10 -165 -5 -25 -12 -93 -16 -152 -4 -60 -10
-108 -14 -108 -17 0 -49 207 -60 387 -4 84 -14 169 -20 188 -6 19 -9 38 -6 43
7 11 119 12 133 0z m245 -103 c-2 -60 -8 -141 -14 -180 -5 -38 -13 -127 -16
-197 -7 -119 -13 -150 -29 -135 -6 7 -23 169 -43 417 -6 74 -15 146 -21 160
-15 35 12 52 76 48 l50 -3 -3 -110z m485 103 c8 -12 -1 -215 -23 -523 -7 -96
-17 -124 -32 -84 -20 55 -61 586 -47 609 9 14 91 12 102 -2z m267 -72 c-3 -39
-9 -100 -14 -136 -5 -36 -12 -124 -16 -197 -7 -147 -14 -195 -31 -200 -6 -2
-14 14 -18 39 -3 24 -10 63 -15 88 -6 25 -14 136 -20 246 -5 111 -11 208 -12
215 -2 10 12 16 47 19 85 9 86 8 79 -74z m-1493 -76 c-2 -80 -7 -167 -12 -193
-5 -27 -12 -97 -15 -158 -10 -162 -30 -145 -45 40 -16 195 -37 396 -45 420 -9
31 9 42 71 39 l50 -3 -4 -145z m1728 141 c11 -7 11 -30 2 -137 -6 -71 -16
-205 -23 -299 -6 -93 -12 -172 -15 -175 -10 -11 -22 29 -28 90 -3 36 -12 101
-20 145 -11 61 -22 317 -16 378 1 10 83 9 100 -2z m-1972 -9 c13 -8 0 -303
-17 -375 -5 -23 -10 -82 -10 -132 0 -89 -10 -130 -25 -105 -4 6 -11 66 -15
133 -5 67 -13 163 -19 212 -5 50 -12 129 -15 177 l-5 87 37 4 c20 2 42 4 47 5
6 1 15 -2 22 -6z m2219 -15 c5 -14 -33 -515 -42 -553 -11 -43 -21 -25 -28 51
-4 41 -11 87 -16 102 -4 15 -11 115 -14 221 l-6 192 50 0 c32 0 52 -5 56 -13z
m-2458 -71 c2 -37 -2 -125 -9 -195 -7 -69 -14 -171 -16 -226 -6 -158 -19 -163
-42 -15 -6 41 -16 102 -21 135 -6 33 -14 116 -19 185 -6 69 -13 135 -17 147
-8 28 22 43 81 40 l40 -2 3 -69z m2677 -76 c0 -151 -24 -440 -37 -440 -4 0 -8
15 -8 33 0 17 -5 50 -10 72 -5 22 -14 134 -20 249 -12 229 -12 229 45 224 l30
-3 0 -135z m-2929 -52 c-9 -247 -20 -401 -30 -417 -17 -27 -27 19 -42 192 -8
94 -16 177 -18 184 -3 6 -6 53 -7 105 l-2 93 29 6 c16 4 40 7 53 8 l24 1 -7
-172z m3123 163 c29 -19 5 -453 -27 -506 -9 -13 -19 39 -21 100 0 28 -5 64
-10 81 -7 25 -18 298 -12 327 2 10 53 9 70 -2z m-3355 -143 c-13 -370 -17
-438 -25 -438 -13 0 -29 70 -29 135 -1 33 -7 87 -15 120 -8 33 -15 96 -15 141
0 45 -5 96 -11 114 -14 40 -3 50 58 50 l42 0 -5 -122z m3555 113 c11 -7 12
-51 4 -263 -5 -139 -13 -260 -18 -267 -6 -11 -11 -11 -22 4 -9 13 -13 51 -13
114 -1 53 -5 130 -10 171 -17 127 -23 218 -17 234 7 17 53 21 76 7z m-3782
-261 c-3 -130 -10 -247 -15 -260 l-10 -25 -11 28 c-6 16 -11 56 -11 90 0 34
-7 116 -15 182 -8 66 -15 146 -15 177 0 54 1 57 28 60 55 7 56 5 49 -252z
m-212 238 c9 -26 -10 -503 -20 -501 -5 2 -13 35 -17 75 -3 40 -16 122 -27 182
-12 61 -21 133 -21 162 0 45 4 55 28 73 31 23 51 26 57 9z m4229 -68 c-2 -128
-23 -370 -34 -389 -18 -35 -27 -16 -33 66 -21 284 -26 367 -21 375 3 5 25 8
47 6 l42 -3 -1 -55z m225 11 c12 -8 12 -23 1 -97 -7 -49 -15 -141 -19 -204 -4
-64 -11 -122 -15 -129 -16 -25 -27 6 -36 95 -5 49 -14 116 -19 149 -6 33 -11
90 -11 128 l0 67 43 0 c23 0 48 -4 56 -9z m194 -30 c35 -14 39 -35 27 -152 -6
-57 -15 -155 -20 -217 -5 -62 -12 -118 -16 -124 -15 -23 -33 39 -34 112 0 41
-5 140 -11 219 -5 79 -8 150 -5 158 6 15 25 17 59 4z m255 -67 c27 -19 29 -77
7 -198 -8 -44 -21 -130 -28 -191 -7 -61 -17 -109 -22 -108 -13 3 -32 199 -37
376 l-4 137 31 0 c17 0 41 -7 53 -16z m216 -55 c24 -19 26 -26 26 -102 0 -45
-7 -129 -15 -187 -8 -58 -15 -132 -15 -165 0 -64 -12 -97 -29 -80 -12 12 -27
489 -17 528 8 32 15 33 50 6z m207 -95 c21 -25 11 -235 -17 -373 -13 -61 -24
9 -30 174 -3 98 -8 183 -10 187 -17 27 35 38 57 12z m-14273 -485 c27 -23 116
-74 217 -124 273 -134 320 -151 610 -221 83 -20 170 -45 195 -54 25 -10 62
-21 83 -25 73 -12 39 -35 -92 -62 -62 -13 -87 -13 -150 -3 -235 37 -375 87
-546 198 -161 104 -415 332 -369 332 3 0 27 -18 52 -41z m11227 -89 c88 -6
261 -14 385 -19 237 -11 432 -25 565 -41 217 -27 255 -33 324 -46 40 -8 92
-14 115 -14 46 0 165 -19 306 -49 52 -11 108 -21 125 -23 47 -5 46 -35 -2 -43
-21 -3 -63 -11 -93 -17 -30 -6 -82 -14 -115 -18 -33 -5 -98 -16 -145 -25 -47
-9 -128 -20 -180 -25 -52 -5 -162 -15 -245 -24 -82 -9 -240 -20 -350 -26 -110
-6 -265 -15 -345 -21 -511 -36 -1384 -38 -1850 -4 -339 24 -395 29 -686 65
-44 6 -101 10 -127 10 -27 0 -80 6 -120 14 -40 8 -106 19 -147 26 -41 6 -103
18 -137 26 -34 8 -76 14 -92 14 -16 0 -33 5 -36 10 -3 6 -3 10 1 10 5 0 64 11
133 24 114 22 308 57 481 85 179 30 654 73 1015 92 105 6 253 14 330 18 204
11 705 12 890 1z m3176 -148 c-37 -91 -128 -247 -199 -342 -143 -187 -314
-333 -524 -445 -149 -79 -434 -195 -529 -214 -19 -4 -40 -11 -46 -14 -17 -11
-282 -75 -338 -82 -27 -4 -99 -15 -160 -26 -214 -36 -642 -54 -699 -28 -14 7
-32 28 -40 51 -24 59 -21 65 27 67 23 0 125 13 227 27 102 14 218 29 258 33
39 4 75 11 79 14 9 10 -465 7 -567 -2 -86 -9 -116 -2 -160 34 -35 29 -130 73
-171 80 -24 4 -78 8 -119 8 -70 1 -106 -4 -238 -35 -45 -10 -58 -10 -80 3 -50
28 -34 44 43 46 39 0 90 6 115 12 25 6 126 11 225 11 99 0 221 5 270 10 50 6
142 15 205 20 63 6 165 14 225 19 95 9 306 40 385 57 20 5 22 7 9 14 -8 5 -33
5 -55 1 -66 -14 -767 -34 -979 -28 -194 5 -275 12 -495 43 -156 22 -380 66
-375 74 2 4 82 10 177 13 1039 36 2048 151 2573 292 50 13 162 43 250 65 276
71 604 195 678 257 40 33 50 20 28 -35z m-11054 -4 c-3 -13 -13 -43 -22 -68
-43 -115 -56 -411 -30 -690 8 -85 20 -209 26 -275 5 -66 17 -160 25 -210 8
-49 19 -117 24 -150 5 -33 16 -96 25 -140 10 -44 19 -96 22 -115 2 -19 13 -73
25 -120 11 -47 24 -110 29 -140 5 -30 12 -67 15 -82 6 -26 4 -28 -28 -28 -19
0 -48 4 -64 9 -16 5 -49 14 -74 21 -119 32 -419 127 -470 148 -14 6 -63 25
-110 42 -174 66 -215 96 -235 175 -51 213 -84 481 -85 685 0 106 22 288 43
365 34 122 103 214 216 290 77 51 153 86 375 175 88 36 187 79 220 96 75 39
80 40 73 12z m3552 -172 c107 -172 247 -354 378 -493 65 -69 119 -132 121
-139 2 -9 -5 -14 -20 -14 -14 0 -44 -6 -69 -14 -24 -8 -96 -21 -159 -30 -63
-10 -137 -21 -165 -26 -49 -9 -267 -19 -470 -21 -164 -3 -487 13 -537 26 -57
14 -101 2 -178 -50 -28 -19 -68 -37 -88 -41 -20 -4 -48 -12 -62 -19 -22 -12
-17 -13 55 -20 44 -3 91 -10 105 -15 45 -16 281 -31 565 -36 229 -4 323 -1
520 15 339 29 449 44 592 82 96 25 120 24 169 -9 23 -15 60 -38 82 -52 48 -29
51 -54 7 -58 -17 -1 -68 -12 -115 -24 -155 -38 -345 -68 -712 -113 -146 -17
-865 -21 -978 -5 -70 10 -91 12 -278 35 -68 8 -126 17 -130 19 -4 2 -43 7 -87
10 -44 4 -94 9 -111 12 -28 5 -34 1 -73 -50 -23 -31 -53 -63 -66 -72 -33 -21
-23 -34 25 -34 21 0 51 -5 67 -11 15 -6 60 -14 98 -19 39 -5 111 -16 160 -25
157 -27 485 -45 855 -47 366 -1 538 9 805 44 83 11 183 24 223 28 40 5 76 11
81 14 4 3 39 10 77 16 38 6 107 20 154 31 47 11 108 24 135 30 28 6 70 17 95
25 57 18 95 18 128 0 24 -13 65 -31 142 -63 l25 -11 -38 -16 c-21 -9 -52 -19
-70 -22 -18 -3 -75 -16 -127 -29 -127 -32 -291 -71 -365 -85 -33 -7 -73 -16
-90 -21 -80 -23 -430 -69 -690 -91 -191 -17 -781 -17 -940 -1 -66 7 -169 17
-230 22 -102 10 -134 15 -285 42 -79 14 -199 39 -241 50 -20 5 -49 9 -65 9
-16 1 -40 7 -54 15 -14 8 -42 14 -62 15 -47 0 -48 14 -4 60 19 19 77 107 128
195 l94 160 69 16 c178 43 509 196 634 292 29 23 66 51 81 62 155 114 389 377
461 517 23 45 30 47 184 51 181 3 164 11 244 -117z m-6362 -301 c31 -14 90
-35 132 -45 153 -39 166 -43 183 -51 10 -5 28 -9 42 -9 13 0 29 -7 37 -16 20
-25 -7 -35 -81 -30 -90 6 -146 19 -207 50 -29 14 -55 26 -59 26 -14 0 -113 76
-114 88 0 16 3 16 67 -13z m11000 -646 c109 -41 147 -228 125 -615 -17 -316
-33 -368 -136 -436 -33 -22 -85 -47 -114 -54 -70 -18 -222 -19 -247 0 -18 13
-18 15 -2 57 19 52 55 209 67 294 28 198 49 373 55 460 8 111 31 200 64 241
41 53 126 77 188 53z m-1285 -21 c15 -6 37 -26 49 -45 28 -45 21 -99 -38 -303
-25 -85 -49 -171 -53 -190 -60 -290 -188 -616 -278 -712 -123 -131 -267 -191
-462 -192 -102 0 -107 1 -185 39 -119 59 -330 205 -433 299 -80 74 -99 148
-68 276 20 86 53 139 130 215 78 76 177 133 281 160 68 17 261 38 275 30 20
-13 8 -26 -47 -53 -146 -71 -225 -145 -273 -256 -26 -62 -23 -95 5 -49 24 41
39 47 73 29 56 -29 92 -95 111 -201 26 -154 46 -235 57 -235 26 0 129 92 184
165 39 53 77 122 91 165 4 14 22 61 39 105 17 44 39 109 49 145 55 188 154
407 216 478 71 82 194 157 235 145 8 -3 27 -9 42 -15z m631 -80 c10 -5 27 -24
37 -41 17 -28 20 -51 20 -170 0 -76 -5 -171 -11 -210 -30 -200 -61 -377 -73
-417 -7 -25 -19 -65 -27 -90 -35 -119 -84 -172 -212 -227 -53 -22 -77 -26
-165 -27 -132 0 -144 8 -108 80 40 79 122 320 145 424 7 30 19 80 27 110 34
132 58 231 75 312 36 165 69 224 144 259 41 19 108 18 148 -3z m2157 -138 c16
-30 3 -106 -27 -165 -53 -101 -135 -174 -241 -215 -31 -12 -66 -26 -77 -30
-11 -5 -42 -11 -70 -14 -200 -24 -248 -18 -402 55 -109 52 -207 126 -243 184
-35 57 -25 65 87 65 287 1 683 54 878 118 78 26 82 26 95 2z m-4357 -67 c20
-3 39 -9 42 -13 7 -12 -72 -73 -140 -108 -33 -17 -154 -58 -270 -92 -115 -34
-228 -68 -250 -76 -23 -8 -49 -14 -59 -14 -10 0 -64 -11 -120 -24 -55 -13
-153 -34 -216 -46 -108 -21 -148 -28 -310 -49 -36 -5 -94 -14 -130 -20 -36 -5
-150 -15 -255 -21 -104 -6 -254 -15 -332 -21 -250 -16 -385 -13 -828 22 -77 6
-194 20 -260 30 -66 11 -138 23 -160 25 -89 12 -454 99 -522 125 -27 10 -30
37 -6 46 9 3 48 1 87 -5 208 -33 596 -75 851 -93 194 -13 724 -13 885 0 69 6
202 15 295 21 155 10 268 24 520 67 98 16 190 30 275 43 156 22 522 118 720
188 51 18 97 28 115 25 17 -2 47 -7 68 -10z m-179 -420 c-10 -60 -33 -100 -62
-111 -103 -37 -576 -144 -787 -177 -55 -9 -125 -20 -155 -25 -30 -5 -113 -14
-185 -21 -71 -6 -146 -16 -165 -21 -108 -29 -735 -46 -1085 -28 -229 11 -585
52 -700 80 -22 5 -58 10 -81 10 -22 0 -49 7 -60 16 -18 14 -17 15 16 10 19 -3
262 -8 540 -12 504 -6 1004 5 1165 26 44 5 143 17 220 25 77 8 192 22 255 31
63 8 145 19 181 23 37 5 71 11 77 15 5 3 43 10 83 16 41 5 128 23 194 39 66
17 201 49 300 72 99 23 194 48 210 55 44 19 47 18 39 -23z m-4394 -68 c0 -11
-79 -117 -119 -160 -42 -45 -44 -46 -98 -43 -65 3 -83 21 -68 64 8 22 25 33
95 59 94 35 146 60 155 75 6 10 35 14 35 5z"/>
<path d="M9405 21027 c-27 -15 -178 -130 -243 -185 -63 -53 -171 -181 -232
-272 -76 -116 -152 -351 -128 -395 12 -21 33 -5 43 33 10 42 112 227 180 328
80 117 259 340 343 426 65 66 77 88 37 65z"/>
<path d="M9410 20695 c-48 -36 -205 -191 -252 -249 -51 -65 -132 -234 -146
-306 -20 -101 -21 -118 -11 -181 12 -76 84 -238 99 -223 7 7 7 29 0 65 -12 61
-5 187 15 266 20 75 79 220 146 356 51 103 78 144 173 263 28 33 16 38 -24 9z"/>
<path d="M8009 20043 c-215 -199 -309 -345 -369 -568 -26 -97 -42 -251 -31
-291 7 -26 10 -20 25 51 38 176 121 386 190 478 13 18 54 83 90 144 61 102
143 207 189 241 18 14 23 32 9 32 -5 0 -51 -39 -103 -87z"/>
<path d="M8115 19857 c-185 -188 -279 -326 -334 -488 -30 -89 -51 -202 -51
-271 0 -83 41 -271 74 -345 27 -57 52 -72 43 -25 -25 131 -29 178 -24 277 11
209 76 419 194 630 16 28 45 79 65 115 20 36 57 89 82 118 44 51 55 73 39 72
-5 -1 -44 -38 -88 -83z"/>
<path d="M12580 17431 c-80 -9 -175 -45 -268 -103 -74 -46 -291 -243 -279
-254 3 -4 17 0 30 9 34 22 123 44 252 62 242 34 391 11 557 -84 147 -84 151
-101 25 -101 -88 0 -217 -20 -282 -43 -167 -60 -370 -210 -425 -316 -17 -32
-6 -37 99 -45 47 -4 98 -9 114 -12 25 -5 29 -1 47 38 24 54 62 91 125 122 53
26 81 20 70 -15 -9 -27 13 -98 42 -136 44 -57 104 -86 192 -91 65 -4 84 -1
119 17 41 21 113 105 126 148 14 45 31 47 88 11 80 -51 118 -59 191 -44 136
29 207 89 207 177 0 56 -45 191 -76 228 -23 28 -18 51 13 51 7 0 28 14 48 31
50 45 48 77 -10 124 -164 135 -713 258 -1005 226z"/>
<path d="M9972 16893 c-60 -21 -147 -104 -185 -177 -30 -60 -31 -64 -32 -201
0 -89 5 -162 14 -200 15 -62 39 -110 50 -100 3 4 9 39 13 78 10 100 24 159 49
209 29 58 85 126 123 149 59 36 158 20 234 -38 31 -24 35 -50 5 -39 -19 8 -93
-25 -114 -50 -27 -31 -61 -120 -57 -150 2 -22 8 -29 23 -27 11 1 60 5 108 9
83 7 89 6 112 -16 14 -13 25 -26 25 -29 0 -3 -31 -39 -69 -79 -55 -59 -72 -85
-90 -137 -40 -124 -23 -212 64 -330 87 -118 94 -140 43 -130 l-33 6 23 -20
c27 -23 118 -37 159 -24 15 5 39 25 51 44 44 64 22 165 -74 331 -35 61 -29 79
51 171 82 94 115 162 115 240 0 72 -37 186 -81 253 -49 74 -178 198 -234 226
-94 48 -212 60 -293 31z"/>
<path d="M12755 14752 c-65 -28 -82 -40 -104 -76 -21 -33 -28 -105 -15 -153 9
-34 66 -32 88 2 9 14 26 25 37 25 12 0 78 -15 148 -34 258 -69 511 -100 851
-105 273 -4 518 37 663 111 33 16 78 33 101 36 l41 7 3 74 c2 49 -1 77 -9 81
-6 4 -37 2 -68 -6 -118 -28 -316 -37 -546 -26 -211 9 -278 7 -540 -17 -209
-19 -320 -21 -450 -8 l-130 12 2 48 c3 54 -5 57 -72 29z"/>
<path d="M13180 14236 c0 -19 113 -128 173 -167 131 -85 371 -132 558 -109
103 12 207 49 271 96 56 40 143 153 129 167 -7 7 -15 7 -23 0 -35 -27 -148
-55 -289 -72 -214 -27 -516 0 -716 63 -60 19 -103 28 -103 22z"/>
<path d="M5305 15289 c-8 -12 8 -17 45 -14 19 2 55 4 79 4 24 1 42 4 38 7 -9
9 -157 12 -162 3z"/>
<path d="M5605 15289 c-12 -5 12 -8 64 -8 46 -1 81 2 77 6 -10 10 -117 12
-141 2z"/>
<path d="M5251 14361 c-29 -19 15 -23 147 -15 133 8 135 9 67 15 -104 10 -198
10 -214 0z"/>
<path d="M5605 14360 c-3 -5 3 -10 15 -10 12 0 18 5 15 10 -3 6 -10 10 -15 10
-5 0 -12 -4 -15 -10z"/>
<path d="M5705 14360 c-8 -12 20 -24 35 -15 6 3 8 11 5 16 -8 12 -32 12 -40
-1z"/>
<path d="M5795 14360 c-4 -6 3 -10 14 -10 25 0 27 6 6 13 -8 4 -17 2 -20 -3z"/>
<path d="M5875 14360 c-3 -5 3 -10 14 -10 12 0 21 5 21 10 0 6 -6 10 -14 10
-8 0 -18 -4 -21 -10z"/>
<path d="M4780 14350 c-50 -4 4 -7 162 -8 130 -1 239 2 242 7 6 10 -295 11
-404 1z"/>
<path d="M4453 13763 c9 -2 25 -2 35 0 9 3 1 5 -18 5 -19 0 -27 -2 -17 -5z"/>
<path d="M4516 13758 c3 -4 21 -8 40 -8 19 0 33 4 30 9 -3 5 -21 9 -40 8 -19
0 -33 -5 -30 -9z"/>
<path d="M4708 13763 c12 -2 30 -2 40 0 9 3 -1 5 -23 4 -22 0 -30 -2 -17 -4z"/>
<path d="M4810 13760 c20 -13 67 -13 75 0 4 6 -12 10 -42 10 -35 0 -44 -3 -33
-10z"/>
<path d="M4920 13760 c0 -5 9 -10 20 -10 11 0 20 5 20 10 0 6 -9 10 -20 10
-11 0 -20 -4 -20 -10z"/>
<path d="M5160 13760 c0 -5 7 -10 15 -10 8 0 15 5 15 10 0 6 -7 10 -15 10 -8
0 -15 -4 -15 -10z"/>
<path d="M5480 13759 c0 -5 5 -7 10 -4 6 3 10 8 10 11 0 2 -4 4 -10 4 -5 0
-10 -5 -10 -11z"/>
<path d="M6511 12885 c18 -10 43 -12 82 -8 80 8 60 23 -31 23 -72 -1 -75 -2
-51 -15z"/>
<path d="M5980 12533 c-164 -4 -219 -15 -144 -29 53 -10 1972 -11 2058 0 58 7
67 10 50 19 -19 11 -1569 19 -1964 10z"/>
<path d="M3993 11702 c-111 -1 -183 -6 -183 -12 0 -6 108 -10 290 -10 187 0
290 4 290 10 0 6 -12 10 -27 11 -119 3 -213 4 -370 1z"/>
<path d="M4420 11690 c-11 -7 1 -10 40 -9 40 0 49 3 35 9 -27 12 -57 12 -75 0z"/>
<path d="M4555 11690 c-15 -7 -10 -9 23 -9 26 -1 41 3 37 9 -7 12 -32 12 -60
0z"/>
<path d="M4283 11093 c9 -2 23 -2 30 0 6 3 -1 5 -18 5 -16 0 -22 -2 -12 -5z"/>
<path d="M3908 10513 c18 -2 45 -2 60 0 15 2 0 4 -33 4 -33 0 -45 -2 -27 -4z"/>
<path d="M3743 9974 c-7 -3 -13 -12 -13 -20 0 -12 48 -14 304 -14 285 0 339 5
304 27 -15 9 -576 16 -595 7z"/>
<path d="M4410 9960 c0 -5 9 -10 19 -10 11 0 23 5 26 10 4 6 -5 10 -19 10 -14
0 -26 -4 -26 -10z"/>
<path d="M4518 9953 c6 -2 18 -2 25 0 6 3 1 5 -13 5 -14 0 -19 -2 -12 -5z"/>
<path d="M3805 9680 c-25 -41 53 -48 427 -42 231 4 311 8 318 18 8 9 7 15 -2
20 -7 5 -175 10 -374 12 -276 3 -363 2 -369 -8z"/>
<path d="M3894 9389 c-15 -25 18 -29 259 -29 256 0 301 4 294 24 -5 14 -544
19 -553 5z"/>
<path d="M4080 9112 c-47 -1 -96 -5 -110 -8 -24 -5 -24 -6 -6 -20 34 -24 365
-13 373 13 5 13 -110 20 -257 15z"/>
<path d="M4047 8828 c-9 -5 -9 -10 -1 -18 15 -15 196 -9 201 7 5 13 -180 23
-200 11z"/>
<path d="M19110 11036 c-184 -29 -428 -131 -628 -263 -181 -119 -402 -329
-500 -474 -61 -92 -152 -268 -175 -339 -29 -88 -46 -156 -53 -210 -12 -85 -10
-298 4 -370 26 -129 129 -292 227 -360 70 -48 199 -90 339 -109 43 -6 82 -14
87 -17 5 -3 80 -5 168 -5 354 0 658 96 972 307 218 147 345 260 458 411 90
120 129 195 167 323 26 88 28 109 28 270 1 173 1 176 -33 274 -82 242 -285
443 -531 528 -131 45 -364 60 -530 34z m340 -126 c19 -12 14 -15 -40 -28 -25
-6 -93 -32 -150 -58 -58 -25 -157 -68 -220 -95 -143 -61 -173 -77 -283 -150
-49 -33 -92 -59 -96 -59 -5 0 -14 -7 -21 -15 -9 -11 13 -6 71 16 150 56 252
91 334 114 44 12 120 35 168 49 49 15 107 31 130 35 23 5 78 19 121 31 79 21
161 24 161 5 -1 -5 -41 -24 -90 -41 -79 -26 -243 -93 -285 -115 -8 -4 -71 -35
-140 -69 -185 -90 -263 -133 -268 -149 -6 -18 31 -9 208 50 247 84 509 160
612 179 68 12 98 9 98 -9 0 -15 -29 -28 -158 -73 -115 -39 -212 -82 -222 -97
-8 -13 -64 -39 -147 -70 -109 -40 -253 -109 -253 -121 0 -12 40 -5 145 25 44
12 112 30 150 40 282 69 393 99 470 127 33 12 66 26 73 31 16 13 48 -15 37
-32 -13 -21 -128 -73 -260 -116 -72 -24 -149 -54 -171 -66 -91 -51 -173 -92
-224 -111 -30 -11 -59 -24 -65 -28 -5 -5 -40 -20 -77 -35 -102 -41 -70 -58 34
-19 20 7 76 23 125 34 156 37 271 68 298 79 11 5 56 18 100 29 44 11 124 31
179 46 104 27 136 32 136 18 0 -25 -71 -63 -205 -112 -49 -18 -123 -48 -163
-66 -41 -19 -76 -34 -79 -34 -4 0 -52 -23 -108 -50 -56 -28 -142 -64 -191 -81
-107 -37 -129 -48 -95 -49 13 0 40 4 60 9 20 5 70 16 111 25 41 8 122 25 180
36 58 12 170 42 249 67 79 25 161 48 183 50 21 3 41 10 44 14 3 5 16 9 30 9
19 0 24 -5 24 -25 0 -21 -11 -30 -67 -58 -38 -19 -121 -51 -186 -71 -65 -21
-200 -76 -300 -123 -100 -46 -201 -91 -224 -100 -24 -8 -43 -19 -43 -25 0 -6
8 -7 18 -3 9 4 46 13 82 21 79 18 142 32 195 45 22 5 67 14 100 19 61 11 249
54 318 73 27 7 41 7 49 -1 24 -24 -24 -53 -226 -136 -49 -21 -108 -47 -130
-58 -23 -12 -84 -36 -136 -55 -93 -33 -119 -47 -108 -58 3 -3 37 1 77 10 40 8
91 15 114 15 53 0 202 26 227 40 24 13 57 13 65 0 11 -18 -34 -68 -88 -99 -29
-16 -108 -51 -177 -76 -69 -26 -127 -49 -130 -52 -3 -3 34 -3 83 0 129 9 123
-1 -83 -128 -100 -61 -309 -146 -490 -199 -151 -44 -374 -57 -515 -31 -44 9
-96 18 -115 21 -37 6 -69 19 -168 67 -68 33 -167 129 -201 196 -93 182 -54
503 96 781 116 217 320 423 553 560 65 39 185 91 295 131 44 15 100 35 125 44
38 14 270 81 365 105 43 11 88 11 105 0z"/>
<path d="M12678 4718 c-32 -34 -58 -66 -58 -70 0 -9 274 -11 308 -2 34 10 27
33 -28 86 -48 46 -52 48 -107 48 l-58 0 -57 -62z"/>
<path d="M12870 4459 c-30 -5 -138 -7 -240 -4 l-185 6 -36 -28 c-20 -15 -58
-44 -84 -63 l-47 -35 79 -14 c51 -9 155 -14 303 -14 210 0 264 4 523 40 22 3
36 10 34 16 -2 7 -35 33 -73 59 -68 46 -70 47 -144 46 -41 0 -100 -4 -130 -9z"/>
<path d="M15579 18483 c-3 -31 3 -307 7 -317 2 -6 68 -54 147 -106 135 -90
156 -106 157 -122 0 -4 -65 -4 -143 -1 -168 7 -200 2 -195 -30 3 -20 11 -23
73 -28 39 -4 148 -7 243 -8 123 -1 182 -5 206 -15 45 -19 214 -121 341 -206
57 -38 107 -70 111 -70 3 0 41 -26 83 -58 42 -32 100 -73 129 -92 28 -18 52
-37 52 -42 0 -4 -148 -8 -330 -8 -331 0 -756 -22 -774 -40 -5 -6 -6 -13 -2
-17 19 -19 282 -33 745 -38 413 -5 509 -9 530 -21 75 -42 350 -263 475 -381
l87 -83 -443 -1 c-244 0 -526 -4 -628 -9 -265 -12 -644 -40 -653 -49 -20 -20
862 -52 1422 -52 222 -1 412 -4 423 -8 18 -6 234 -206 333 -307 154 -157 165
-176 89 -155 -20 5 -57 8 -82 5 -26 -2 -362 -9 -747 -14 -653 -10 -1087 -28
-1117 -46 -22 -14 57 -23 202 -24 74 0 164 -5 200 -10 36 -6 261 -14 500 -20
239 -5 503 -12 585 -15 83 -3 247 -2 365 3 125 5 226 4 242 -1 15 -5 53 -39
85 -75 31 -37 90 -101 129 -142 69 -73 174 -211 174 -229 0 -5 -37 -10 -82
-10 -402 -1 -1628 -23 -1758 -31 -91 -5 -286 -12 -433 -15 -267 -6 -327 -10
-327 -25 0 -12 154 -19 590 -30 859 -21 1730 -32 1910 -24 l185 9 53 -55 c29
-30 65 -73 80 -95 15 -22 52 -74 83 -115 31 -41 67 -95 80 -120 13 -25 30 -53
37 -62 8 -9 11 -21 8 -26 -3 -5 -247 -10 -588 -11 -724 -3 -1573 -29 -1629
-50 -55 -20 335 -40 966 -51 303 -5 658 -12 790 -15 132 -4 303 -2 380 2 l140
9 37 -39 c39 -42 114 -174 104 -185 -4 -3 -125 -5 -269 -3 -290 2 -1077 -24
-1202 -40 -96 -13 -84 -13 -173 -3 -78 8 -464 -14 -457 -27 3 -3 134 -7 292
-8 158 -1 332 -6 388 -12 127 -12 674 -30 1135 -36 304 -4 357 -7 372 -20 10
-9 38 -57 64 -107 25 -50 66 -127 90 -171 25 -44 48 -92 51 -108 3 -15 10 -30
14 -33 5 -3 9 -11 9 -19 0 -11 -84 -13 -477 -14 -262 -1 -479 -4 -483 -6 -6
-4 -748 -22 -1210 -29 -253 -4 -460 -16 -460 -26 0 -8 131 -12 970 -29 256 -5
543 -15 639 -21 96 -6 204 -10 240 -9 36 2 238 2 448 1 431 -2 395 5 440 -84
75 -149 165 -363 155 -372 -3 -4 -123 -6 -266 -6 -144 0 -378 -5 -521 -11
-143 -5 -523 -15 -845 -20 -738 -13 -900 -18 -900 -28 0 -8 61 -10 795 -31
193 -6 438 -15 545 -20 107 -5 428 -13 713 -16 354 -5 520 -11 526 -18 14 -17
101 -256 112 -306 6 -25 14 -63 19 -85 5 -22 5 -43 2 -47 -4 -3 -326 -8 -717
-11 -860 -6 -1786 -35 -1800 -57 -6 -10 156 -21 194 -14 17 4 37 2 44 -4 7 -6
82 -13 172 -16 88 -3 277 -10 420 -16 499 -20 1142 -30 1421 -24 154 4 292 4
305 1 20 -5 28 -16 36 -49 16 -60 92 -368 98 -394 3 -12 -1 -26 -8 -32 -7 -5
-127 -12 -282 -15 -646 -14 -1392 -41 -1402 -51 -2 -2 113 -6 254 -10 142 -4
425 -14 628 -23 204 -9 473 -18 598 -19 125 -1 231 -4 234 -7 9 -10 33 -119
33 -154 0 -17 -6 -35 -12 -40 -7 -4 -94 -6 -193 -5 -99 2 -295 -1 -435 -7
-140 -6 -439 -13 -665 -16 -598 -9 -1176 -24 -1189 -33 -6 -4 16 -10 49 -14
63 -7 909 -22 1877 -34 l577 -7 16 -45 c18 -55 19 -101 3 -107 -7 -2 -218 -9
-468 -15 -718 -17 -878 -24 -894 -40 -7 -7 -5 -10 4 -10 8 0 159 -3 335 -5
176 -2 464 -9 640 -15 176 -6 336 -8 356 -5 21 4 40 2 43 -4 4 -5 13 -56 21
-113 8 -57 17 -112 19 -123 3 -11 7 -32 10 -46 4 -16 19 -35 38 -47 48 -28
204 -178 239 -228 16 -24 34 -44 39 -44 15 0 12 257 -5 470 -16 202 -26 293
-50 445 -9 55 -20 128 -26 162 -5 35 -18 107 -29 160 -11 54 -25 123 -31 153
-89 434 -322 1167 -492 1545 -152 338 -235 506 -359 730 -15 28 -42 77 -59
110 -76 144 -274 461 -378 605 -125 173 -351 471 -400 528 -25 30 -77 91 -116
137 -38 46 -110 130 -160 187 -118 135 -707 723 -832 830 -200 171 -290 246
-373 308 -47 35 -166 125 -265 199 -190 144 -202 152 -390 278 -232 154 -399
254 -690 413 -159 87 -357 180 -381 180 -2 0 -4 -3 -5 -7z"/>
<path d="M18015 15290 c-3 -5 3 -10 15 -10 12 0 18 5 15 10 -3 6 -10 10 -15
10 -5 0 -12 -4 -15 -10z"/>
<path d="M18705 15290 c-4 -6 5 -10 20 -10 15 0 24 4 20 10 -3 6 -12 10 -20
10 -8 0 -17 -4 -20 -10z"/>
<path d="M18258 15283 c7 -3 16 -2 19 1 4 3 -2 6 -13 5 -11 0 -14 -3 -6 -6z"/>
<path d="M18578 14348 c8 -8 17 -8 34 0 22 10 21 11 -11 11 -27 1 -32 -2 -23
-11z"/>
<path d="M18820 14350 c34 -11 180 -11 205 0 13 5 -27 8 -105 8 -77 0 -115 -3
-100 -8z"/>
<path d="M16775 14050 c50 -4 97 -3 105 1 8 5 -32 8 -90 7 l-105 -1 90 -7z"/>
<path d="M18445 13760 c3 -5 18 -10 33 -10 21 0 24 2 12 10 -20 13 -53 13 -45
0z"/>
<path d="M18790 13760 c0 -5 7 -10 15 -10 8 0 15 5 15 10 0 6 -7 10 -15 10 -8
0 -15 -4 -15 -10z"/>
<path d="M19048 13753 c6 -2 18 -2 25 0 6 3 1 5 -13 5 -14 0 -19 -2 -12 -5z"/>
<path d="M16463 12531 c-122 -3 -224 -9 -228 -13 -23 -23 869 -43 1315 -29
703 21 665 19 646 39 -9 8 -1412 11 -1733 3z"/>
<path d="M18750 11690 c-20 -6 -14 -8 28 -9 28 -1 52 3 52 9 0 12 -44 12 -80
0z"/>
<path d="M18658 11683 c12 -2 30 -2 40 0 9 3 -1 5 -23 4 -22 0 -30 -2 -17 -4z"/>
<path d="M17285 11388 c-209 -4 -535 -11 -724 -14 -189 -4 -338 -10 -330 -14
36 -19 316 -28 1189 -40 781 -11 733 -13 870 39 30 12 65 21 77 21 12 0 25 5
28 10 7 12 -529 11 -1110 -2z"/>
<path d="M14497 9725 c-95 -26 -175 -102 -198 -189 -15 -55 -6 -151 19 -206
21 -46 74 -102 126 -135 23 -14 51 -18 125 -18 94 -1 97 0 154 36 83 53 130
129 135 219 7 109 -48 222 -128 263 -87 45 -149 53 -233 30z"/>
<path d="M10175 9238 c-95 -88 -125 -152 -125 -261 0 -70 4 -92 27 -138 39
-79 193 -225 193 -182 0 3 -11 20 -24 37 -13 17 -38 65 -57 106 -31 70 -34 82
-34 185 0 124 20 195 76 273 17 23 26 42 20 42 -6 0 -40 -28 -76 -62z"/>
<path d="M10523 9258 c-74 -41 -120 -90 -154 -163 -38 -84 -36 -133 10 -222
36 -70 90 -125 152 -152 70 -31 118 -34 191 -11 122 37 195 132 205 264 5 65
3 79 -22 134 -31 69 -84 123 -149 153 -61 28 -178 26 -233 -3z"/>
<path d="M20426 9203 c-70 -79 -146 -150 -253 -237 -45 -37 -62 -58 -66 -80
-15 -103 -157 -600 -214 -751 -8 -22 -24 -67 -35 -100 -10 -33 -34 -98 -53
-145 -18 -47 -46 -116 -61 -155 -96 -248 -127 -319 -309 -689 -81 -164 -151
-308 -156 -320 -5 -11 -15 -29 -21 -39 -18 -25 1 -34 82 -42 36 -4 88 -15 116
-26 42 -17 56 -18 71 -8 44 27 234 358 359 624 129 277 209 478 322 810 97
286 216 731 260 970 43 234 44 247 35 256 -6 6 -35 -20 -77 -68z"/>
<path d="M19810 8680 c-8 -5 -27 -10 -42 -10 -15 0 -30 -4 -33 -10 -7 -11 107
-14 118 -3 7 6 -11 33 -22 33 -3 0 -13 -5 -21 -10z"/>
<path d="M19390 8433 c-77 -22 -26 -29 199 -29 146 1 195 4 198 14 4 9 -22 12
-104 14 -59 1 -146 2 -193 3 -47 1 -92 0 -100 -2z"/>
<path d="M17998 8170 c-258 -8 -340 -16 -303 -30 41 -15 851 -32 1405 -28
l575 3 0 25 c0 17 -7 26 -25 31 -33 9 -1332 8 -1652 -1z"/>
<path d="M14507 8081 c-65 -33 -106 -70 -137 -124 -26 -46 -30 -61 -30 -134 0
-135 45 -210 161 -269 107 -53 202 -44 297 31 63 49 98 101 117 174 31 120
-15 229 -126 301 -61 39 -64 40 -153 40 -71 0 -100 -4 -129 -19z"/>
<path d="M19285 7860 c-186 -4 -200 -6 -125 -13 115 -10 400 -8 400 4 0 5 -9
9 -19 9 -11 0 -25 1 -33 3 -7 1 -107 0 -223 -3z"/>
<path d="M10715 7624 c-102 -26 -174 -86 -201 -166 -39 -119 -13 -231 74 -321
70 -72 131 -100 207 -95 101 6 176 55 244 158 34 52 36 59 35 135 -1 66 -6 89
-28 134 -51 99 -126 149 -237 155 -41 3 -83 3 -94 0z m43 -86 c-6 -18 -28 -21
-28 -4 0 9 7 16 16 16 9 0 14 -5 12 -12z"/>
<path d="M18380 7609 c-343 -12 -503 -21 -489 -29 21 -11 1388 -29 1547 -21 8
1 12 10 10 24 -3 19 -11 23 -58 29 -71 8 -744 6 -1010 -3z"/>
<path d="M10323 7557 c-45 -50 -67 -94 -84 -162 -17 -71 -16 -81 7 -185 17
-78 125 -205 196 -229 34 -12 32 -7 -23 59 -48 58 -62 88 -89 184 -27 99 -26
259 4 314 21 41 17 50 -11 19z"/>
<path d="M19230 7290 l-45 -7 57 -1 c31 -1 60 3 63 8 7 11 -6 11 -75 0z"/>
<path d="M18618 7283 c7 -3 16 -2 19 1 4 3 -2 6 -13 5 -11 0 -14 -3 -6 -6z"/>
<path d="M18753 7283 c9 -2 23 -2 30 0 6 3 -1 5 -18 5 -16 0 -22 -2 -12 -5z"/>
<path d="M18843 7283 c9 -2 23 -2 30 0 6 3 -1 5 -18 5 -16 0 -22 -2 -12 -5z"/>
<path d="M18918 7283 c6 -2 18 -2 25 0 6 3 1 5 -13 5 -14 0 -19 -2 -12 -5z"/>
<path d="M18022 7021 c-10 -6 -8 -10 10 -15 39 -11 814 -28 988 -21 156 6 189
13 174 37 -7 11 -1155 10 -1172 -1z"/>
<path d="M18990 6730 c0 -5 4 -10 9 -10 6 0 13 5 16 10 3 6 -1 10 -9 10 -9 0
-16 -4 -16 -10z"/>
<path d="M18913 6723 c9 -2 25 -2 35 0 9 3 1 5 -18 5 -19 0 -27 -2 -17 -5z"/>
</g>
</svg>
